<?xml version="1.0" encoding="UTF-8" standalone="no"?>
<svg width="169px" height="41px" viewBox="0 0 169 41" version="1.1" xmlns="http://www.w3.org/2000/svg" xmlns:xlink="http://www.w3.org/1999/xlink" xmlns:sketch="http://www.bohemiancoding.com/sketch/ns">
    <!-- Generator: Sketch 3.3.2 (12043) - http://www.bohemiancoding.com/sketch -->
    <title>Imported Layers</title>
    <desc>Created with Sketch.</desc>
    <defs></defs>
    <g id="Page-1" stroke="none" stroke-width="1" fill="none" fill-rule="evenodd" sketch:type="MSPage">
        <g id="Imported-Layers" sketch:type="MSLayerGroup" fill="#FFFFFF">
            <path d="M17.526,37.448 C15.476,37.415 13.365,36.831 11.39,35.791 C10.448,35.294 9.539,34.725 8.773,33.955 C8.314,33.495 7.704,33.179 7.287,32.691 C6.68,31.983 6.217,31.151 5.635,30.418 C4.912,29.513 4.682,28.376 4.113,27.405 C3.889,27.022 4.261,26.482 3.752,26.204 C3.549,25.292 3.266,22.193 3.51,21.333 C3.861,20.086 3.94,18.776 4.531,17.575 C5.112,16.396 5.722,15.27 6.529,14.215 C7.5,12.947 8.557,11.791 9.885,10.926 C11.219,10.056 12.594,9.23 14.24,9.072 C14.949,8.583 15.811,8.813 16.594,8.582 C16.958,8.475 17.351,8.435 17.751,8.435 C18.216,8.435 18.69,8.489 19.138,8.555 C20.432,8.743 21.774,8.869 22.975,9.375 C24.121,9.858 25.241,10.451 26.273,11.189 C28.614,12.865 30.289,15.067 31.369,17.695 C31.763,18.65 32.078,19.669 32.137,20.761 C32.185,21.665 32.514,22.569 32.359,23.481 C32.127,24.858 32.069,26.254 31.601,27.612 C31.144,28.945 30.478,30.128 29.73,31.291 C28.526,33.164 26.742,34.382 24.902,35.534 C23.413,36.468 21.763,36.871 20.051,37.2 C19.266,37.35 18.503,37.376 17.526,37.448 M16.873,5.365 C16.308,5.444 15.892,5.551 15.476,5.554 C14.131,5.556 12.887,6.005 11.662,6.458 C10.574,6.86 9.499,7.361 8.521,7.982 C6.902,9.009 5.467,10.247 4.318,11.838 C3.396,13.114 2.519,14.381 1.839,15.812 C0.818,17.967 0.387,20.231 0.255,22.575 C0.206,23.439 0.334,24.3 0.451,25.168 C0.589,26.194 0.768,27.193 1.06,28.174 C1.504,29.654 2.049,31.108 2.952,32.379 C3.43,33.052 4.111,33.594 4.511,34.303 C5.297,35.7 6.623,36.49 7.818,37.4 C9.014,38.309 10.404,38.897 11.815,39.463 C13.54,40.156 15.298,40.548 17.121,40.641 C17.369,40.653 17.617,40.659 17.866,40.659 C18.701,40.659 19.541,40.59 20.39,40.453 C21.955,40.199 23.398,39.68 24.854,39.136 C26.874,38.378 28.553,37.07 30.171,35.696 C31.572,34.508 32.609,33.019 33.457,31.394 C33.784,30.766 34.172,30.185 34.309,29.446 C34.427,28.808 34.86,28.23 35.025,27.593 C35.209,26.891 35.248,26.152 35.344,25.43 C35.439,24.702 35.553,23.976 35.607,23.246 C35.686,22.195 35.154,21.187 35.345,20.12 C34.888,19.593 35.225,18.92 35.03,18.36 C34.662,17.3 34.217,16.269 33.804,15.226 C33.232,13.783 32.301,12.552 31.301,11.414 C29.381,9.226 27.129,7.461 24.3,6.515 C22.821,6.021 21.359,5.526 19.794,5.526 C19.586,5.526 19.376,5.535 19.165,5.554 C18.919,5.575 18.671,5.584 18.423,5.584 C18.131,5.584 17.837,5.571 17.547,5.551 C17.262,5.531 16.987,5.398 16.873,5.365" id="Fill-1" sketch:type="MSShapeGroup"></path>
            <path d="M88.602,24.162 C88.242,24.162 87.89,24.188 87.559,24.287 C86.384,24.638 85.185,25.079 84.342,26.071 C84.159,25.888 84.022,25.769 83.906,25.631 C83.055,24.614 81.963,24.185 80.685,24.185 C80.608,24.185 80.53,24.186 80.451,24.189 C80.249,24.198 80.046,24.201 79.842,24.201 C79.596,24.201 79.349,24.196 79.102,24.192 C79.073,24.191 79.043,24.191 79.013,24.191 C77.798,24.191 76.773,24.692 75.832,25.421 C75.784,25.459 75.709,25.465 75.611,25.499 C75.584,25.14 75.558,24.803 75.535,24.505 L70.743,24.505 L70.743,40.345 L75.584,40.345 L75.584,29.181 C76.012,28.754 76.395,28.372 76.785,27.982 L79.291,27.982 C79.559,28.347 79.863,28.761 80.205,29.228 L80.205,40.393 C81.774,40.393 83.297,40.393 84.818,40.392 L84.934,40.351 L85.028,40.268 L85.028,29.559 C85.279,29.07 85.487,28.662 85.695,28.25 C86.122,28.013 86.567,27.961 86.996,27.961 C87.162,27.961 87.326,27.968 87.485,27.976 C87.644,27.985 87.799,27.992 87.947,27.992 C88.044,27.992 88.139,27.989 88.23,27.98 C89.418,28.371 89.649,29.15 89.632,30.155 C89.592,32.899 89.612,35.643 89.627,38.388 C89.629,38.802 89.736,39.215 89.813,39.755 C89.779,39.829 89.679,40.048 89.547,40.344 L94.479,40.344 C94.479,36.611 94.483,32.926 94.478,29.241 C94.476,28.506 94.409,27.79 94.251,27.051 C93.965,25.709 93.18,24.933 91.997,24.474 C91.515,24.288 91.009,24.173 90.478,24.173 C90.394,24.173 90.309,24.176 90.223,24.182 C90.092,24.191 89.96,24.194 89.827,24.194 C89.626,24.194 89.423,24.186 89.22,24.178 C89.013,24.17 88.806,24.162 88.602,24.162" id="Fill-2" sketch:type="MSShapeGroup"></path>
            <path d="M105.799,24.184 C105.717,24.184 105.634,24.185 105.551,24.189 C105.363,24.197 105.174,24.2 104.985,24.2 C104.724,24.2 104.462,24.194 104.201,24.192 C104.181,24.191 104.162,24.191 104.142,24.191 C102.914,24.191 101.879,24.689 100.934,25.43 L100.731,25.483 C100.695,25.128 100.662,24.791 100.633,24.511 L95.84,24.511 C95.75,25.875 96.228,27.148 96.123,28.48 C96.02,29.776 96.1,31.087 96.1,32.391 C96.1,33.74 96.132,35.092 96.091,36.44 C96.048,37.742 96.295,39.057 95.898,40.395 C96.093,40.394 96.288,40.394 96.482,40.394 C96.872,40.394 97.26,40.395 97.648,40.395 L98.664,40.395 C99.341,40.395 100.016,40.394 100.691,40.388 L100.691,29.278 C101.133,28.811 101.533,28.388 101.915,27.984 L104.094,27.984 C104.505,28.29 104.916,28.595 105.295,28.878 C105.209,29.519 105.338,30.067 105.321,30.632 C105.234,33.643 105.274,36.658 105.293,39.671 C105.294,39.902 105.467,40.133 105.544,40.327 L110.141,40.327 C110.141,37.698 110.127,35.135 110.146,32.571 C110.156,31.347 109.959,30.101 110.449,28.941 C110.756,28.61 111.06,28.282 111.34,27.982 L113.259,27.982 C114.183,28.229 114.692,28.685 114.707,29.362 C114.733,30.461 115.156,31.507 115.015,32.625 C114.934,33.29 115.028,33.975 114.996,34.648 C114.916,36.411 115.237,38.192 114.739,39.935 C114.703,40.05 114.754,40.19 114.766,40.338 L119.591,40.338 L119.591,28.418 C119.591,28.238 119.611,28.055 119.588,27.879 C119.471,26.982 119.212,26.165 118.585,25.454 C118.046,24.846 117.311,24.605 116.67,24.193 C116.094,24.193 115.518,24.192 114.943,24.192 C114.439,24.192 113.935,24.193 113.431,24.196 L113.386,24.196 L113.295,24.196 C113.257,24.195 113.218,24.195 113.18,24.195 C112.996,24.195 112.812,24.204 112.649,24.262 C111.494,24.683 110.386,25.197 109.461,26.077 C109.26,25.877 109.124,25.76 109.008,25.621 C108.161,24.602 107.069,24.184 105.799,24.184" id="Fill-3" sketch:type="MSShapeGroup"></path>
            <path d="M60.879,37.377 C60.819,37.377 60.752,37.347 60.671,37.263 C60.487,37.08 60.128,37.081 59.865,36.962 C58.539,36.357 58.158,35.699 57.721,34.264 C57.426,33.296 57.438,32.345 57.521,31.409 C57.615,30.376 58.033,29.365 58.701,28.556 C59.119,28.047 59.801,27.77 60.485,27.715 C60.75,27.694 61.017,27.687 61.279,27.687 C61.675,27.687 62.059,27.702 62.412,27.702 C63.053,28.103 63.791,28.254 64.164,28.865 C64.488,29.393 64.707,29.985 65.047,30.707 C65.047,31.504 65.1,32.492 65.035,33.472 C64.951,34.695 64.594,35.821 63.558,36.626 C63.161,36.935 62.511,37.216 61.915,37.216 C61.751,37.216 61.593,37.195 61.444,37.148 C61.413,37.138 61.385,37.134 61.358,37.134 C61.256,37.134 61.178,37.196 61.105,37.256 C61.031,37.316 60.962,37.377 60.879,37.377 M60.04,24.191 C58.975,24.191 58.017,24.511 57.045,24.968 C56.137,25.392 55.511,26.05 54.804,26.693 C53.69,27.71 53.474,29.118 52.897,30.371 C53.051,31.903 52.705,33.436 53.133,34.989 C53.76,37.265 54.893,38.871 56.933,39.994 C57.918,40.535 59,40.76 60.058,40.895 C60.517,40.952 60.978,40.984 61.439,40.984 C62.535,40.984 63.63,40.808 64.686,40.397 C66.254,39.787 67.594,38.837 68.537,37.465 C69.492,36.078 69.748,34.423 69.896,32.775 C69.957,32.09 69.807,31.412 69.677,30.722 C69.453,29.54 69.084,28.449 68.435,27.45 C67.446,25.923 66.052,25.022 63.913,24.414 C63.014,24.156 62.168,24.34 61.432,24.193 C61.117,24.193 60.846,24.194 60.591,24.194 C60.422,24.194 60.26,24.193 60.098,24.192 C60.079,24.191 60.059,24.191 60.04,24.191" id="Fill-4" sketch:type="MSShapeGroup"></path>
            <path d="M128.775,27.71 C128.929,27.71 129.089,27.708 129.247,27.7 C129.318,27.696 129.388,27.694 129.458,27.694 C130.871,27.694 132.032,28.499 132.538,30.146 C133.027,31.735 133.078,34.115 132.059,35.643 C131.564,36.387 131.518,36.53 130.565,37.126 C130.435,37.154 130.303,37.163 130.171,37.163 C130.057,37.163 129.944,37.156 129.831,37.15 C129.717,37.144 129.604,37.137 129.492,37.137 C129.189,37.137 128.895,37.185 128.625,37.411 L128.446,37.238 C126.861,37.212 126.022,36.148 125.594,34.872 C124.99,33.08 125.024,31.218 125.824,29.446 C126.11,28.814 126.539,28.285 127.229,28.031 C127.423,27.959 127.611,27.873 128.023,27.702 C128.235,27.702 128.497,27.71 128.775,27.71 M130.367,24.189 L130.309,24.189 C129.872,24.195 129.436,24.198 129,24.198 C128.49,24.198 127.981,24.194 127.473,24.191 C127.463,24.19 127.453,24.19 127.443,24.19 C126.583,24.19 125.794,24.471 125.037,24.832 C124.009,25.322 123.102,25.934 122.387,26.891 C121.446,28.151 120.705,29.435 120.664,31.049 C120.659,31.297 120.525,31.54 120.509,31.79 C120.479,32.211 120.475,32.638 120.502,33.06 C120.518,33.307 120.69,33.56 120.658,33.794 C120.572,34.426 120.781,35 120.951,35.571 C121.545,37.561 122.85,38.96 124.66,39.93 C125.798,40.542 127.008,40.843 128.295,40.945 C128.512,40.962 128.729,40.97 128.945,40.97 C129.875,40.97 130.79,40.824 131.687,40.636 C132.7,40.423 133.717,40.016 134.514,39.345 C136.303,37.845 137.437,35.97 137.422,33.537 C137.422,33.343 137.554,33.147 137.632,32.93 C137.569,32.847 137.469,32.713 137.354,32.564 C137.483,32.389 137.584,32.254 137.639,32.176 C137.541,31.67 137.457,31.344 137.419,31.014 C137.379,30.663 137.481,30.265 137.351,29.96 C136.635,28.244 136.01,26.46 134.237,25.465 C133.024,24.785 131.796,24.189 130.367,24.189" id="Fill-5" sketch:type="MSShapeGroup"></path>
            <path d="M86.65,19.063 C86.532,19.063 86.414,19.063 86.295,19.062 C85.383,19.056 84.803,18.629 84.393,17.796 C84.216,17.435 84.116,17.016 84.253,16.812 C84.48,16.481 84.463,15.973 84.988,15.802 C85.537,15.626 86.049,15.333 86.614,15.175 C87.375,14.961 88.123,14.696 88.885,14.48 C88.958,14.46 89.036,14.453 89.119,14.453 C89.264,14.453 89.427,14.473 89.616,14.473 L89.616,16.443 C89.235,17.899 88.487,18.654 87.359,19.062 C87.123,19.062 86.887,19.063 86.65,19.063 M87.924,5.515 C87.613,5.515 87.289,5.554 86.986,5.573 C86.507,5.604 86.029,5.814 85.558,5.814 C85.532,5.814 85.506,5.813 85.479,5.812 C85.408,5.808 85.337,5.806 85.267,5.806 C84.275,5.806 83.408,6.184 82.581,6.652 C81.053,7.518 80.412,8.893 80.439,10.628 L85.014,10.628 C85.151,9.423 85.691,8.499 87.604,8.499 C87.858,8.499 88.137,8.515 88.441,8.549 C88.838,8.842 89.251,9.148 89.607,9.411 L89.607,11.79 C89.346,11.77 89.088,11.76 88.834,11.76 C86.933,11.76 85.196,12.282 83.481,12.868 C82.482,13.212 81.467,13.626 80.803,14.526 C80.478,14.965 80.24,15.464 79.865,16.106 C79.769,16.36 80.13,16.911 79.65,17.285 C80.059,17.682 79.879,18.187 79.891,18.649 C79.917,19.599 80.408,20.36 80.962,21.035 C81.559,21.763 83.66,22.547 84.629,22.573 C84.679,22.574 84.728,22.574 84.776,22.574 C85.376,22.574 85.954,22.478 86.549,22.33 C87.764,22.026 88.897,21.641 89.801,20.653 C89.963,21.124 90.112,21.556 90.266,22.007 L94.479,22.007 C94.479,21.728 94.582,21.4 94.462,21.218 C94.03,20.557 94.226,19.843 94.22,19.158 C94.195,16.1 94.223,13.043 94.202,9.984 C94.195,8.923 93.855,7.969 93.043,7.226 C92.746,6.953 92.471,6.655 92.19,6.372 C92.103,6.372 92.015,6.384 91.932,6.384 C91.879,6.384 91.828,6.38 91.78,6.364 C91.264,6.199 90.765,5.978 90.245,5.84 C90.06,5.792 89.875,5.786 89.686,5.786 C89.66,5.786 89.633,5.786 89.606,5.787 L89.522,5.787 C89.256,5.787 88.983,5.777 88.701,5.649 C88.47,5.546 88.203,5.515 87.924,5.515" id="Fill-6" sketch:type="MSShapeGroup"></path>
            <path d="M67.828,12.005 C68.086,10.64 68.848,9.688 70.045,9.114 C70.387,9.065 70.723,9.035 71.049,9.035 C72.174,9.035 73.184,9.398 73.918,10.645 C73.717,11.039 74.531,11.46 74.154,12.005 L67.828,12.005 M70.661,5.552 C70.64,5.552 70.619,5.555 70.599,5.561 C70.277,5.655 69.955,5.813 69.632,5.816 C69.105,5.82 68.617,5.916 68.125,6.095 C66.937,6.527 65.779,7.072 65.084,8.14 C64.524,8.998 63.885,9.867 63.699,10.928 C63.516,11.977 63.126,12.988 63.155,14.074 C63.166,14.478 63.122,14.887 63.167,15.285 C63.21,15.658 63.395,16.018 63.417,16.388 C63.492,17.615 64.074,18.658 64.71,19.624 C65.332,20.57 66.332,21.185 67.324,21.728 C68.256,22.237 69.34,22.276 70.348,22.559 C70.381,22.569 70.415,22.573 70.451,22.573 C70.612,22.573 70.8,22.49 70.969,22.456 C71.167,22.417 71.408,22.298 71.583,22.298 C71.627,22.298 71.667,22.306 71.701,22.324 C71.885,22.426 72.068,22.462 72.246,22.462 C72.593,22.462 72.927,22.325 73.235,22.265 C74.122,22.087 75.034,21.85 75.821,21.371 C77.125,20.572 78.11,19.46 78.775,18.078 C77.551,17.56 76.496,16.68 75.228,16.293 C73.475,18.572 72.916,19.029 71.101,19.029 C70.882,19.029 70.645,19.023 70.385,19.012 C69.734,18.519 68.981,17.95 68.341,17.465 C68.15,16.543 67.993,15.784 67.823,14.975 L78.844,14.975 C78.721,13.945 78.857,12.976 78.59,11.96 C78.123,10.19 77.537,8.595 76.142,7.291 C74.78,6.019 73.098,5.908 71.453,5.561 C71.366,5.703 71.279,5.75 71.192,5.75 C71.104,5.75 71.015,5.701 70.927,5.652 C70.838,5.602 70.75,5.552 70.661,5.552" id="Fill-7" sketch:type="MSShapeGroup"></path>
            <path d="M132.231,11.995 C132.623,10.902 132.949,9.863 134.037,9.35 C134.486,9.138 134.94,9.042 135.414,9.042 C136.033,9.042 136.689,9.205 137.42,9.483 C137.474,9.538 137.742,9.768 137.963,10.038 C138.149,10.263 138.282,10.532 138.47,10.839 L138.47,11.995 L132.231,11.995 M134.694,5.558 C134.655,5.558 134.626,5.566 134.609,5.583 C134.408,5.8 134.184,5.832 133.958,5.832 C133.907,5.832 133.857,5.831 133.806,5.829 C133.754,5.827 133.702,5.825 133.649,5.825 C133.594,5.825 133.538,5.827 133.484,5.833 C133.271,5.856 133.057,5.88 132.854,5.939 C131.583,6.314 130.566,7.072 129.671,8.031 C128.75,9.02 128.451,10.307 127.962,11.505 C128.146,12.098 127.69,12.584 127.692,13.146 C127.693,13.776 127.693,14.405 127.693,15.035 C127.693,16.486 128.178,17.743 129.01,19.214 C129.33,19.783 129.768,20.183 130.199,20.598 C131.233,21.595 132.517,22.106 133.935,22.309 C134.219,22.35 134.49,22.481 134.776,22.573 C135.065,22.345 135.355,22.264 135.625,22.264 C135.951,22.264 136.247,22.382 136.477,22.502 C139.489,22.071 141.777,20.841 143.157,18.149 C142.088,17.337 140.852,16.933 139.729,16.302 C139.246,16.895 138.859,17.489 138.352,17.957 C137.864,18.41 137.252,18.732 136.774,19.056 C136.622,19.064 136.475,19.068 136.333,19.068 C133.17,19.068 132.401,17.037 132.408,14.979 L143.364,14.979 C143.299,14.119 143.322,13.333 143.125,12.497 C142.721,10.786 142.348,9.529 141.466,8.188 C140.946,7.395 140.19,6.764 139.394,6.436 C138.757,6.171 138.066,5.806 137.303,5.806 C137.23,5.806 137.156,5.81 137.081,5.817 C137.067,5.818 137.053,5.819 137.038,5.819 C136.821,5.819 136.584,5.677 136.237,5.571 C136.054,5.721 135.867,5.854 135.639,5.854 C135.538,5.854 135.429,5.827 135.309,5.765 C135.135,5.675 134.846,5.558 134.694,5.558" id="Fill-8" sketch:type="MSShapeGroup"></path>
            <path d="M148.656,24.166 C148.417,24.166 148.176,24.172 147.936,24.179 C147.705,24.185 147.475,24.192 147.245,24.192 L147.111,24.192 C147.096,24.192 147.08,24.191 147.065,24.191 C145.832,24.191 144.799,24.708 143.849,25.445 L143.642,25.463 C143.629,25.144 143.614,24.841 143.6,24.518 L138.799,24.518 L138.799,40.33 L143.619,40.33 L143.619,29.249 C144.049,28.805 144.453,28.386 144.863,27.959 C145.018,27.978 145.173,27.985 145.329,27.985 C145.547,27.985 145.766,27.972 145.98,27.958 C146.195,27.944 146.405,27.931 146.608,27.931 C147.021,27.931 147.401,27.987 147.715,28.212 C148.466,29.513 148.188,30.722 148.204,31.9 C148.239,34.329 148.214,36.759 148.214,39.19 L148.214,40.363 L152.98,40.363 L153.072,40.227 C153.074,36.178 153.089,32.128 153.061,28.078 C153.054,27.457 152.847,26.84 152.579,26.258 C151.979,24.956 150.878,24.367 149.539,24.21 C149.248,24.177 148.952,24.166 148.656,24.166" id="Fill-9" sketch:type="MSShapeGroup"></path>
            <path d="M160.445,24.152 C159.481,24.152 158.629,24.611 157.721,24.833 C157.412,24.909 157.121,25.162 156.881,25.394 C156.134,26.119 155.314,26.793 154.998,27.858 C154.912,28.432 155.145,29.074 154.775,29.486 C154.871,30.095 154.949,30.598 155.039,31.175 C155.182,31.385 155.35,31.686 155.568,31.943 C156.586,33.152 158.007,33.612 159.473,33.897 C160.803,34.155 162.096,34.577 163.448,34.738 C163.674,34.766 163.877,34.983 164.115,35.126 C164.221,35.403 164.342,35.712 164.465,36.03 C164.265,36.388 164.082,36.718 163.869,37.101 C163.709,37.118 163.538,37.112 163.381,37.158 C162.719,37.35 162.13,37.455 161.556,37.455 C160.553,37.455 159.598,37.132 158.391,36.391 C157.819,36.038 157.265,35.652 156.709,35.284 C155.767,36.047 154.826,36.808 153.697,37.723 C154.242,38.132 154.717,38.422 155.109,38.796 C156.642,40.259 158.601,40.645 160.571,40.905 C160.979,40.959 161.393,40.99 161.808,40.99 C162.529,40.99 163.255,40.896 163.961,40.666 C165.296,40.231 166.654,39.83 167.589,38.692 C168.276,37.86 168.806,36.958 168.749,35.797 C168.702,34.889 168.799,33.97 168.34,33.1 C167.711,32.539 167.169,31.86 166.343,31.467 C165.147,30.898 163.879,30.641 162.599,30.414 C162.023,30.311 161.478,30.092 160.86,30.092 C160.848,30.092 160.837,30.092 160.825,30.093 L160.818,30.093 C160.42,30.093 160.017,29.695 159.58,29.457 C159.47,29.152 159.342,28.801 159.196,28.392 C159.65,28.055 160.061,27.749 160.453,27.458 C160.707,27.431 160.956,27.418 161.201,27.418 C162.927,27.418 164.442,28.071 165.828,29.125 C166.739,28.215 167.596,27.359 168.449,26.501 C168.473,26.476 168.461,26.417 168.473,26.316 C168.428,26.249 168.383,26.105 168.287,26.048 C166.61,25.045 164.817,24.355 162.851,24.2 C162.72,24.19 162.589,24.187 162.457,24.187 C162.283,24.187 162.109,24.193 161.935,24.199 C161.764,24.205 161.592,24.211 161.421,24.211 C161.223,24.211 161.027,24.203 160.832,24.177 C160.701,24.16 160.572,24.152 160.445,24.152" id="Fill-10" sketch:type="MSShapeGroup"></path>
            <path d="M46.798,24.17 C46.687,24.17 46.574,24.174 46.46,24.183 C46.175,24.205 45.889,24.212 45.602,24.212 C45.368,24.212 45.133,24.207 44.899,24.202 C44.653,24.198 44.408,24.193 44.164,24.193 C42.783,24.196 41.584,24.791 40.582,25.62 C39.283,26.695 38.271,27.999 37.947,29.784 C37.738,30.934 37.424,32.059 37.516,33.238 C37.541,33.566 37.774,33.89 37.758,34.205 C37.709,35.186 38.056,36.1 38.508,36.864 C38.958,37.622 39.438,38.398 40.218,39.011 C41.299,39.859 42.406,40.368 43.723,40.717 C44.354,40.886 44.973,40.938 45.585,40.938 C45.968,40.938 46.349,40.917 46.729,40.892 C47.666,40.833 48.564,40.392 49.432,39.958 C50.832,39.258 51.851,38.195 52.712,36.774 C52.212,36.444 51.762,35.955 51.234,35.846 C50.583,35.712 50.293,34.989 49.649,34.989 C49.627,34.989 49.604,34.99 49.581,34.992 C48.937,35.733 48.308,36.459 47.752,37.098 C47.33,37.16 46.936,37.098 46.75,37.267 C46.666,37.343 46.598,37.371 46.538,37.371 C46.45,37.371 46.38,37.312 46.306,37.254 C46.232,37.195 46.154,37.136 46.052,37.136 C46.027,37.136 46,37.14 45.972,37.148 C45.863,37.178 45.745,37.193 45.619,37.193 C44.841,37.193 43.8,36.648 43.445,36.108 C42.727,35.013 42.403,33.814 42.349,32.505 C42.322,31.836 42.566,31.233 42.632,30.592 C42.811,28.851 44.128,27.701 45.707,27.701 C45.728,27.701 45.748,27.701 45.769,27.702 C45.918,27.705 46.067,27.706 46.217,27.706 C46.515,27.706 46.813,27.702 47.111,27.702 C48.152,28.097 48.615,29.07 49.188,29.799 C50.394,29.139 51.535,28.516 52.744,27.853 C52.08,26.854 51.542,26.056 50.628,25.544 C49.413,24.865 48.233,24.17 46.798,24.17" id="Fill-11" sketch:type="MSShapeGroup"></path>
            <path d="M44.435,5.644 C44.028,5.644 43.535,5.844 42.971,5.939 C42.281,6.277 41.439,6.525 40.805,7.034 C39.863,7.796 39.06,8.711 38.474,9.825 C37.908,10.901 37.751,12.06 37.514,13.205 C37.268,14.396 37.859,15.542 37.783,16.734 L37.938,16.934 C38.338,18.269 38.993,19.42 40.025,20.397 C41.227,21.535 42.563,22.257 44.234,22.312 C44.384,22.318 44.531,22.459 44.676,22.537 C44.932,22.33 45.19,22.255 45.439,22.255 C45.761,22.255 46.069,22.38 46.337,22.511 C49.135,21.987 51.41,20.795 52.867,18.262 C51.797,17.715 50.683,17.146 49.539,16.562 C48.934,17.475 48.35,18.341 47.238,18.791 L44.93,18.791 C43.904,18.137 43.633,17.745 43.112,17.008 C42.643,16.349 42.498,15.582 42.42,14.878 C42.332,14.094 42.053,13.195 42.634,12.434 C42.667,10.942 43.472,9.978 44.661,9.374 L47.258,9.374 C47.917,10.032 48.609,10.726 49.312,11.431 C50.384,10.818 51.537,10.156 52.656,9.517 C52.608,9.312 52.609,9.215 52.564,9.152 C52.486,9.045 52.357,8.972 52.285,8.86 C50.914,6.717 48.912,5.818 46.422,5.818 L46.413,5.818 C46.201,5.818 45.991,5.827 45.779,5.827 C45.434,5.827 45.086,5.804 44.723,5.686 C44.633,5.657 44.537,5.644 44.435,5.644" id="Fill-12" sketch:type="MSShapeGroup"></path>
            <path d="M117.66,6.125 L112.596,6.125 C114.432,11.498 116.235,16.771 118.019,21.992 L122.723,21.992 C124.539,16.676 126.335,11.416 128.131,6.162 L123.215,6.162 C122.313,9.792 121.429,13.342 120.545,16.896 L120.274,16.896 C119.404,13.315 118.534,9.726 117.66,6.125" id="Fill-13" sketch:type="MSShapeGroup"></path>
            <path d="M101.456,1.745 C101.285,1.745 101.113,1.759 100.941,1.773 C100.771,1.787 100.601,1.801 100.435,1.801 C100.373,1.801 100.311,1.799 100.249,1.795 C99.921,1.77 99.592,1.763 99.259,1.763 C98.745,1.763 98.224,1.781 97.688,1.781 L97.688,6.41 L95.203,6.41 C95.75,7.277 95.49,8.135 95.762,8.77 C95.831,8.998 95.905,9.227 95.984,9.489 C96.253,9.284 96.385,9.184 96.517,9.085 C96.668,9.283 96.823,9.361 96.989,9.361 C97.209,9.361 97.449,9.222 97.72,9.038 C97.72,12.312 97.715,15.417 97.723,18.52 C97.725,19.704 98.413,20.847 99.308,21.629 C100.077,22.303 100.986,22.405 101.897,22.566 C102.062,22.595 102.226,22.608 102.389,22.608 C102.809,22.608 103.223,22.526 103.636,22.444 C104.049,22.363 104.462,22.281 104.882,22.281 C105.004,22.281 105.125,22.288 105.248,22.303 L105.248,18.896 C105.121,18.768 105.026,18.673 104.883,18.53 L103.058,18.53 C102.832,18.344 102.695,18.23 102.634,18.182 L102.634,9.027 C102.793,9.165 102.887,9.247 102.982,9.33 C103.074,9.246 103.17,9.158 103.305,9.038 C103.545,9.146 103.802,9.262 104.023,9.361 C104.176,9.237 104.267,9.162 104.32,9.118 C104.504,9.224 104.648,9.307 104.842,9.419 C105.017,9.234 105.166,9.078 105.217,9.024 L105.217,6.331 L102.58,6.331 L102.58,2.126 C102.225,1.817 101.844,1.745 101.456,1.745" id="Fill-14" sketch:type="MSShapeGroup"></path>
            <path d="M62.304,6.097 C60.923,6.097 59.756,6.768 58.531,7.484 L58.531,6.137 L56.939,6.137 C55.886,6.137 54.846,6.138 53.806,6.141 L53.711,6.231 C53.8,6.328 53.888,6.424 53.92,6.459 C53.843,7.021 53.718,7.522 53.715,8.027 C53.7,12.246 53.706,16.466 53.706,20.686 L53.706,22.008 L58.566,22.008 L58.566,11.926 C58.978,11.509 59.385,11.096 59.744,10.731 C60.262,10.62 60.717,10.442 61.172,10.441 C61.793,10.438 62.369,10.375 62.842,10.047 L62.842,6.131 C62.659,6.108 62.479,6.097 62.304,6.097" id="Fill-15" sketch:type="MSShapeGroup"></path>
            <path d="M111.714,6.125 L106.947,6.125 L106.947,22.042 C107.278,22.033 107.608,22.029 107.936,22.029 C108.264,22.029 108.59,22.033 108.914,22.035 C109.224,22.038 109.532,22.04 109.839,22.04 C110.472,22.04 111.098,22.029 111.714,21.983 L111.714,6.125" id="Fill-16" sketch:type="MSShapeGroup"></path>
            <path d="M111.707,0.747 L106.924,0.747 L106.924,4.164 L111.762,4.164 C111.762,3.542 111.771,2.964 111.758,2.387 C111.744,1.822 111.826,1.249 111.707,0.747" id="Fill-17" sketch:type="MSShapeGroup"></path>
            <path d="M12.987,17.455 C12.646,17.455 12.263,17.674 11.899,17.705 C10.32,17.831 9.293,18.742 8.582,20.052 C7.957,21.204 7.654,22.453 7.811,23.774 C7.845,24.058 8.031,24.324 8.063,24.609 C8.158,25.454 8.526,26.147 9.127,26.733 C9.545,27.142 9.954,27.56 10.255,27.861 C11.28,28.205 12.23,28.543 13.208,28.543 C13.559,28.543 13.913,28.499 14.276,28.397 C15.617,28.019 16.677,27.268 17.529,26.145 C17.521,26.007 17.571,25.79 17.486,25.665 C17.373,25.497 17.17,25.369 16.98,25.279 C16.501,25.051 16.008,24.853 15.474,24.623 C15.273,24.993 15.176,25.297 14.979,25.499 C14.747,25.737 14.424,25.884 14.127,26.082 L12.606,26.082 C12.143,25.648 11.719,25.25 11.405,24.954 C10.807,23.333 10.945,21.883 11.64,20.513 C12.038,20.315 12.411,20.13 12.875,19.899 C13.054,19.842 13.221,19.817 13.379,19.817 C14.317,19.817 14.906,20.718 15.591,21.25 C16.319,20.793 16.951,20.396 17.711,19.915 C17.237,19.387 16.885,18.918 16.459,18.53 C15.523,17.673 14.269,17.716 13.131,17.469 C13.084,17.459 13.036,17.455 12.987,17.455" id="Fill-18" sketch:type="MSShapeGroup"></path>
            <path d="M23.458,17.482 C23.103,17.482 22.757,17.598 22.374,17.664 C21.728,17.778 21.148,17.895 20.576,18.238 C19.763,18.723 19.166,19.404 18.609,20.135 C18.485,20.297 18.395,20.497 18.338,20.694 C17.937,22.064 17.912,23.834 18.335,25.189 C18.938,27.111 20.838,28.456 22.848,28.53 C22.9,28.532 22.951,28.533 23.002,28.533 C24.195,28.533 25.184,28.028 26.221,27.538 C27.076,27.135 27.483,26.471 27.813,25.7 C27.121,25.319 26.503,24.98 25.901,24.649 C25.377,25.208 24.924,25.694 24.57,26.072 L22.879,26.072 C21.368,25.516 21.498,24.101 21.135,23.264 C21.21,22.67 21.303,22.295 21.293,21.926 C21.275,21.253 21.588,20.761 22.054,20.351 C22.271,20.159 22.556,20.046 22.849,19.874 L24.282,19.874 C24.684,20.265 25.155,20.722 25.645,21.201 C26.148,20.957 26.721,20.707 27.264,20.401 C27.498,20.27 27.67,20.025 27.861,19.839 C27.035,18.956 26.319,18.124 24.931,17.712 C24.907,17.712 24.728,17.763 24.534,17.763 C24.417,17.763 24.295,17.745 24.197,17.687 C23.938,17.534 23.696,17.482 23.458,17.482" id="Fill-19" sketch:type="MSShapeGroup"></path>
        </g>
    </g>
</svg>