<?xml version="1.0" encoding="UTF-8" standalone="no"?>
<svg width="43px" height="42px" viewBox="0 0 43 42" version="1.1" xmlns="http://www.w3.org/2000/svg" xmlns:xlink="http://www.w3.org/1999/xlink" xmlns:sketch="http://www.bohemiancoding.com/sketch/ns">
    <!-- Generator: Sketch 3.3.2 (12043) - http://www.bohemiancoding.com/sketch -->
    <title>Imported Layers</title>
    <desc>Created with Sketch.</desc>
    <defs></defs>
    <g id="Page-1" stroke="none" stroke-width="1" fill="none" fill-rule="evenodd" sketch:type="MSPage">
        <path d="M0,28.296 C0,29.507 0.983,30.489 2.193,30.489 C3.404,30.489 4.387,29.507 4.387,28.296 L4.387,26.278 C4.387,25.208 5.247,24.349 6.318,24.349 L7.089,24.349 C7.045,24.751 7.02,25.172 7.02,25.601 C7.02,27.313 7.345,28.946 7.933,30.446 L5.265,33.315 C4.764,33.849 4.387,35.034 4.387,35.754 L4.387,39.703 C4.387,40.912 5.37,41.896 6.58,41.896 C7.791,41.896 8.773,40.912 8.773,39.703 L8.773,37.016 C8.773,36.623 8.889,36.263 9.089,35.956 L10.433,34.525 C12.117,36.43 14.038,38.369 16.881,39.14 C16.943,39.168 17.013,39.184 17.083,39.202 C17.233,39.247 17.391,39.263 17.548,39.263 C18.513,39.263 19.303,38.473 19.303,37.51 L19.303,22.593 C19.303,21.629 20.093,20.838 21.058,20.838 C22.023,20.838 22.812,21.629 22.812,22.593 L22.812,37.51 C22.812,38.473 23.602,39.263 24.566,39.263 C24.752,39.263 24.936,39.237 25.111,39.176 L25.332,39.115 C28.051,38.36 30.017,36.412 31.683,34.525 L33.025,35.956 C33.228,36.263 33.341,36.623 33.341,37.016 L33.341,39.703 C33.341,40.912 34.325,41.896 35.534,41.896 C36.746,41.896 37.728,40.912 37.728,39.703 L37.728,35.754 C37.728,35.034 37.352,33.849 36.851,33.315 L34.184,30.446 C34.772,28.946 35.096,27.313 35.096,25.601 C35.096,25.172 35.069,24.751 35.025,24.349 L35.798,24.349 C36.867,24.349 37.728,25.208 37.728,26.278 L37.728,28.296 C37.728,29.507 38.712,30.489 39.921,30.489 C41.133,30.489 42.115,29.507 42.115,28.296 L42.115,24.349 C42.115,21.927 40.149,19.961 37.728,19.961 L33.597,19.961 C33.2,19.224 32.753,18.513 32.297,17.803 L35.973,13.818 C36.474,13.284 36.851,12.029 36.851,11.187 L36.851,7.238 C36.851,6.028 35.868,5.045 34.657,5.045 C33.447,5.045 32.464,6.028 32.464,7.238 L32.464,10.133 C32.464,10.529 32.351,10.888 32.149,11.195 L29.788,13.722 C28.805,11.81 28.077,9.625 28.077,6.8 C28.077,3.527 25.84,0.781 22.812,0 L22.812,4.168 C22.812,5.133 22.023,5.922 21.058,5.922 C20.093,5.922 19.303,5.133 19.303,4.168 L19.303,0 C16.276,0.781 14.038,3.527 14.038,6.8 C14.038,9.617 13.301,11.791 12.318,13.705 L9.967,11.195 C9.766,10.888 9.651,10.529 9.651,10.133 L9.651,7.238 C9.651,6.028 8.669,5.045 7.458,5.045 C6.247,5.045 5.265,6.028 5.265,7.238 L5.265,11.187 C5.265,12.029 5.641,13.284 6.142,13.818 L9.8,17.784 C9.335,18.495 8.898,19.215 8.502,19.961 L4.387,19.961 C1.965,19.961 0,21.927 0,24.349 L0,28.296" id="Imported-Layers" fill="#FFFFFF" sketch:type="MSShapeGroup"></path>
    </g>
</svg>