<?xml version="1.0" encoding="UTF-8" standalone="no"?>
<svg width="43px" height="45px" viewBox="0 0 43 45" version="1.1" xmlns="http://www.w3.org/2000/svg" xmlns:xlink="http://www.w3.org/1999/xlink" xmlns:sketch="http://www.bohemiancoding.com/sketch/ns">
    <!-- Generator: Sketch 3.3.2 (12043) - http://www.bohemiancoding.com/sketch -->
    <title>Imported Layers</title>
    <desc>Created with Sketch.</desc>
    <defs></defs>
    <g id="Page-1" stroke="none" stroke-width="1" fill="none" fill-rule="evenodd" sketch:type="MSPage">
        <g id="Imported-Layers" sketch:type="MSLayerGroup">
            <path d="M34.499,15.742 C30.373,15.769 27.007,12.447 26.983,8.322 C26.952,4.195 30.271,0.832 34.397,0.806 C38.521,0.779 41.883,4.1 41.911,8.224 C41.939,12.346 38.623,15.713 34.499,15.742" id="Fill-1" fill="#FFFFFF" sketch:type="MSShapeGroup"></path>
            <path d="M34.695,44.93 C30.568,44.959 27.203,41.639 27.177,37.518 C27.149,33.391 30.467,30.023 34.593,29.996 C38.717,29.968 42.08,33.289 42.107,37.416 C42.135,41.539 38.818,44.902 34.695,44.93" id="Fill-2" fill="#FFFFFF" sketch:type="MSShapeGroup"></path>
            <path d="M7.668,30.516 C3.543,30.544 0.177,27.225 0.151,23.1 C0.124,18.981 3.443,15.613 7.564,15.584 C11.688,15.557 15.051,18.878 15.08,22.997 C15.106,27.124 11.79,30.488 7.668,30.516" id="Fill-3" fill="#FFFFFF" sketch:type="MSShapeGroup"></path>
            <path d="M28.676,8.315 L23.921,8.346 C22.428,8.356 21.215,9.585 21.225,11.078 L21.385,34.84 C21.394,36.333 22.625,37.547 24.118,37.536 L28.871,37.504 M20.85,22.736 L9.538,22.81" id="Stroke-4" stroke="#FFFFFF" stroke-width="1.239" sketch:type="MSShapeGroup"></path>
        </g>
    </g>
</svg>