<?xml version="1.0" encoding="UTF-8" standalone="no"?>
<svg width="44px" height="45px" viewBox="0 0 44 45" version="1.1" xmlns="http://www.w3.org/2000/svg" xmlns:xlink="http://www.w3.org/1999/xlink" xmlns:sketch="http://www.bohemiancoding.com/sketch/ns">
    <!-- Generator: Sketch 3.3.2 (12043) - http://www.bohemiancoding.com/sketch -->
    <title>Imported Layers</title>
    <desc>Created with Sketch.</desc>
    <defs></defs>
    <g id="Page-1" stroke="none" stroke-width="1" fill="none" fill-rule="evenodd" sketch:type="MSPage">
        <g id="Imported-Layers" sketch:type="MSLayerGroup" fill="#FFFFFF">
            <path d="M40.742,4.051 L23.79,4.051 C23.975,3.702 24.107,3.324 24.107,2.901 C24.107,1.528 22.995,0.415 21.621,0.415 C20.247,0.415 19.134,1.528 19.134,2.901 C19.134,3.324 19.266,3.7 19.452,4.051 L2.505,4.051 C1.243,4.051 0.218,5.079 0.218,6.338 L0.218,31.555 C0.218,32.813 1.243,33.844 2.504,33.844 L16.361,33.844 L13.67,43.337 C13.482,43.995 13.878,44.638 14.551,44.76 L15.623,44.965 C16.296,45.089 16.998,44.653 17.183,43.999 L20.064,33.843 L23.182,33.843 L26.064,43.997 C26.248,44.653 26.953,45.089 27.625,44.963 L28.69,44.758 C29.363,44.636 29.76,43.993 29.572,43.335 L26.88,33.844 L40.742,33.844 C41.997,33.844 43.026,32.813 43.026,31.555 L43.026,6.338 C43.026,5.081 41.999,4.051 40.742,4.051 L40.742,4.051 Z M4.565,8.038 L38.675,8.038 L38.675,29.384 L4.565,29.384 L4.565,8.038 Z" id="Fill-1" sketch:type="MSShapeGroup"></path>
            <path d="M8.586,25.802 C9.565,25.802 10.359,25.008 10.359,24.028 C10.359,23.851 10.307,23.69 10.258,23.529 C12.522,21.703 16.525,18.482 18.348,17.078 C18.637,17.281 18.97,17.426 19.348,17.426 C19.662,17.426 19.942,17.323 20.198,17.179 C21.37,18.176 23.363,19.87 24.78,21.073 C24.761,21.175 24.72,21.268 24.72,21.376 C24.72,22.357 25.515,23.151 26.494,23.151 C27.478,23.151 28.271,22.357 28.271,21.376 C28.271,21.202 28.219,21.045 28.171,20.886 L32.753,16.753 C32.999,16.881 33.267,16.973 33.564,16.973 C34.543,16.973 35.335,16.179 35.335,15.2 C35.335,14.222 34.543,13.428 33.564,13.428 C32.584,13.428 31.792,14.222 31.792,15.2 C31.792,15.433 31.842,15.653 31.925,15.858 C30.645,17.013 28.669,18.795 27.437,19.909 C27.16,19.731 26.848,19.599 26.494,19.599 C26.078,19.599 25.71,19.765 25.408,20.006 C24.238,19.012 22.346,17.405 20.999,16.261 C21.07,16.07 21.122,15.869 21.122,15.655 C21.122,14.676 20.328,13.884 19.35,13.884 C18.373,13.884 17.577,14.677 17.577,15.657 C17.577,15.873 17.629,16.074 17.7,16.263 L9.567,22.59 C9.284,22.395 8.957,22.255 8.586,22.255 C7.607,22.255 6.813,23.049 6.813,24.028 C6.813,25.008 7.607,25.802 8.586,25.802" id="Fill-2" sketch:type="MSShapeGroup"></path>
        </g>
    </g>
</svg>