<?xml version="1.0" encoding="UTF-8" standalone="no"?>
<svg width="47px" height="60px" viewBox="0 0 47 60" version="1.1" xmlns="http://www.w3.org/2000/svg" xmlns:xlink="http://www.w3.org/1999/xlink" xmlns:sketch="http://www.bohemiancoding.com/sketch/ns">
    <!-- Generator: Sketch 3.3.2 (12043) - http://www.bohemiancoding.com/sketch -->
    <title>Imported Layers</title>
    <desc>Created with Sketch.</desc>
    <defs></defs>
    <g id="Page-1" stroke="none" stroke-width="1" fill="none" fill-rule="evenodd" sketch:type="MSPage">
        <g id="Imported-Layers" sketch:type="MSLayerGroup">
            <path d="M13.023,52.987 C22.618,50.24 32.157,46.675 41.533,42.295 C37.94,27.196 32.359,13.226 25.266,0.716 C17.233,6.917 8.852,12.351 0.229,16.995 C5.981,27.758 10.405,39.858 13.023,52.987" id="Fill-1" fill="#FFFFFF" sketch:type="MSShapeGroup"></path>
            <path d="M8.793,24.429 C14.976,21.38 21.06,17.942 27.007,14.123 M10.949,29.675 C17.243,26.817 23.45,23.567 29.534,19.933 M12.904,35.077 C19.303,32.412 25.628,29.355 31.844,25.909 M14.65,40.633 C21.148,38.163 27.586,35.299 33.928,32.044" id="Stroke-2" stroke="#666464" stroke-width="2.669" sketch:type="MSShapeGroup"></path>
            <path d="M13.155,53.17 C15.258,40.477 15.258,27.523 13.155,14.83 C23.35,13.141 33.544,11.453 43.739,9.765 C46.397,25.812 46.397,42.188 43.739,58.235 C33.544,56.547 23.35,54.859 13.155,53.17" id="Fill-3" fill="#FFFFFF" sketch:type="MSShapeGroup"></path>
            <path d="M42.955,11.187 C45.325,26.303 45.325,41.697 42.955,56.813 C33.405,55.316 23.855,53.819 14.305,52.323 C16.208,40.182 16.208,27.818 14.305,15.677 C23.855,14.181 33.405,12.684 42.955,11.187 M44.509,8.326 C43.862,8.439 43.216,8.552 42.569,8.665 C32.928,10.347 23.287,12.03 13.646,13.713 C13.097,13.808 12.549,13.904 12,14 C12.11,14.631 12.215,15.264 12.315,15.897 C14.22,27.99 14.205,40.308 12.268,52.397 C12.183,52.932 12.093,53.466 12,54 C12.549,54.096 13.097,54.191 13.646,54.287 C23.287,55.97 32.928,57.653 42.569,59.335 C43.215,59.448 43.862,59.561 44.509,59.674 C44.628,58.988 44.743,58.303 44.853,57.616 C47.338,42.098 47.358,26.285 44.913,10.761 C44.785,9.949 44.65,9.137 44.509,8.326" id="Fill-4" fill="#686867" sketch:type="MSShapeGroup"></path>
            <path d="M20.318,23.899 C27.294,23.326 34.271,22.752 41.247,22.179 M20.676,30.276 C27.673,30.065 34.669,29.853 41.666,29.642 M20.722,35.596 C27.721,35.687 34.721,35.777 41.72,35.868 M20.474,41.977 C27.459,42.43 34.445,42.882 41.43,43.335" id="Stroke-5" stroke="#666464" stroke-width="3" sketch:type="MSShapeGroup"></path>
        </g>
    </g>
</svg>