<?xml version="1.0" encoding="UTF-8" standalone="no"?>
<svg width="53px" height="49px" viewBox="0 0 53 49" version="1.1" xmlns="http://www.w3.org/2000/svg" xmlns:xlink="http://www.w3.org/1999/xlink" xmlns:sketch="http://www.bohemiancoding.com/sketch/ns">
    <!-- Generator: Sketch 3.3.2 (12043) - http://www.bohemiancoding.com/sketch -->
    <title>Imported Layers</title>
    <desc>Created with Sketch.</desc>
    <defs></defs>
    <g id="Page-1" stroke="none" stroke-width="1" fill="none" fill-rule="evenodd" sketch:type="MSPage">
        <path d="M52.363758,21.9960857 C52.292758,21.7910857 52.225758,21.6130857 52.194758,21.4030857 C52.291758,21.5260857 52.358758,21.6570857 52.436758,21.7810857 C52.434758,21.7660857 52.432758,21.7480857 52.432758,21.7320857 C51.875758,20.6920857 51.465758,19.5700857 50.731758,18.6370857 C50.257758,18.0540857 49.888758,18.5840857 49.856758,17.3460857 C49.709758,15.9350857 49.323758,15.2920857 48.856758,15.0540857 C48.383758,14.9660857 46.528758,14.8570857 45.805758,14.4920857 C44.907758,14.0410857 44.499758,13.5940857 43.433758,13.4500857 C42.613758,13.3460857 41.885758,13.2650857 41.067758,13.3780857 C40.471758,13.4500857 37.539758,12.9450857 39.450758,12.4000857 C39.837758,12.2930857 40.324758,12.6460857 40.605758,12.2280857 C40.838758,11.8280857 40.737758,11.6010857 40.297758,11.5470857 C39.617758,11.4900857 39.075758,11.5800857 38.370758,11.3830857 C36.672758,10.8970857 36.480758,9.07308574 35.518758,7.74908574 C35.036758,7.24308574 34.673758,6.14108574 33.925758,5.98908574 C33.311758,5.87308574 32.706758,6.06408574 32.099758,6.08108574 C30.996758,7.32508574 31.061758,8.88208574 31.762758,10.3080857 C31.224758,10.3320857 29.882758,10.0650857 29.437758,9.78908574 C28.450758,9.17208574 28.354758,9.49508574 27.400758,9.33308574 C26.927758,9.25608574 26.344758,8.63208574 25.803758,8.93008574 C25.159758,9.28708574 24.935758,9.10408574 24.287758,8.80308574 C23.928758,8.77308574 22.370758,8.70108574 22.118758,8.86308574 C21.389758,9.34708574 20.828758,8.89208574 19.973758,9.20508574 C18.965758,9.05608574 17.620758,9.93108574 16.668758,9.53308574 C16.873758,8.89608574 17.249758,8.32408574 17.348758,7.65108574 C17.959758,7.63608574 18.564758,7.61408574 19.176758,7.60008574 C19.873758,8.11808574 20.367758,6.98808574 19.668758,6.62608574 C18.833758,6.19108574 17.565758,6.42908574 18.113758,5.11508574 C18.534758,4.10408574 18.002758,2.45908574 18.762758,1.91108574 C19.149758,1.63908574 20.326758,1.37908574 19.735758,0.688085739 C19.386758,0.277085739 18.868758,0.813085739 18.488758,0.955085739 C17.325758,1.39808574 16.940758,0.808085739 15.843758,0.709085739 C15.536758,0.688085739 15.233758,0.688085739 14.929758,0.712085739 C14.417758,0.950085739 14.199758,0.803085739 14.262758,0.277085739 C13.925758,-0.266914261 13.297758,0.117085739 12.929758,0.356085739 C12.040758,0.935085739 11.119758,1.58408574 10.275758,2.22008574 C8.43575799,3.60308574 6.23275799,4.00008574 5.00075799,6.19008574 C3.80075799,8.32408574 2.37175799,10.1980857 4.35375799,12.4450857 C4.64175799,12.7760857 5.03775799,12.9270857 5.32575799,13.2170857 C5.05175799,13.7150857 4.89375799,14.2580857 4.72575799,14.7950857 C4.43075799,15.7350857 3.39575799,16.6500857 3.30075799,17.4880857 C2.90475799,18.3350857 3.62675799,19.1960857 3.98175799,19.9720857 C4.34875799,20.7700857 4.39975799,21.9120857 4.47575799,22.7850857 C1.68575799,21.9660857 0.676757992,23.4770857 0.147757992,25.9380857 C-0.374242008,28.3340857 0.565757992,30.7700857 1.73175799,32.8400857 C3.06575799,35.2080857 5.02175799,36.8310857 6.59975799,38.9780857 C7.38675799,40.0480857 8.16975799,41.0420857 9.10675799,41.9910857 C10.019758,42.6070857 9.81175799,43.5070857 10.338758,44.4130857 C10.926758,45.4360857 11.369758,46.6650857 11.483758,47.8480857 C11.511758,48.1490857 11.516758,48.5840857 11.928758,48.4360857 C12.292758,48.0630857 12.120758,47.7140857 12.136758,47.2110857 C12.160758,46.4840857 12.251758,44.9550857 13.306758,45.0420857 C14.250758,45.1090857 15.621758,45.8310857 16.268758,46.5130857 C16.556758,46.8140857 18.285758,48.9980857 18.624758,48.6470857 C19.046758,48.3750857 17.411758,46.4910857 17.244758,46.2390857 C16.558758,45.2240857 13.733758,41.8740857 16.958758,42.1450857 C16.644758,42.9870857 17.639758,43.0640857 18.028758,42.3930857 C18.419758,41.7210857 17.853758,41.2600857 17.287758,41.0400857 C15.500758,40.3440857 15.102758,39.3670857 14.183758,37.7500857 C15.576758,38.1240857 16.097758,38.1700857 17.184758,37.1630857 C17.930758,36.4800857 18.316758,35.5440857 18.316758,34.5390857 C18.316758,32.1750857 16.764758,31.6700857 15.868758,29.8010857 C17.879758,30.8010857 20.168758,30.7730857 22.370758,30.7460857 C22.946758,30.7370857 24.874758,30.3490857 25.206758,30.9480857 C25.460758,31.4060857 23.384758,33.8420857 23.230758,34.6270857 C22.687758,37.2430857 25.980758,37.6500857 27.856758,38.0140857 C29.007758,38.2420857 30.156758,37.9850857 31.264758,38.3820857 C31.948758,38.6240857 33.503758,39.2380857 33.413758,40.0990857 C33.315758,40.9890857 34.404758,40.0780857 33.852758,39.2170857 C33.402758,38.5210857 32.055758,37.7110857 32.851758,36.7310857 C33.585758,35.8350857 35.134758,36.2530857 36.054758,35.6510857 C37.065758,35.0540857 35.097758,35.2750857 35.086758,35.2750857 C34.384758,35.3060857 32.544758,35.4110857 32.661758,34.2790857 C32.718758,33.7370857 33.675758,31.9530857 32.777758,31.7280857 C32.446758,31.9530857 31.623758,34.0880857 31.124758,32.5290857 C31.003758,32.1500857 31.006758,31.4410857 30.648758,31.2100857 C30.508758,31.3890857 30.354758,31.5550857 30.229758,31.7560857 C29.967758,32.1890857 29.686758,32.6070857 29.304758,32.9450857 C28.789758,33.3980857 28.046758,34.0060857 28.080758,34.7770857 C28.099758,35.0160857 28.341758,35.2080857 28.349758,35.4410857 C28.190758,35.4690857 28.110758,35.2760857 28.048758,35.1600857 C27.792758,34.6730857 28.121758,34.0340857 28.410758,33.6380857 C28.826758,33.0670857 29.336758,32.5430857 29.774758,31.9750857 C29.934758,31.7710857 30.120758,31.4350857 30.340758,31.1460857 C30.302758,31.1500857 30.270758,31.1420857 30.226758,31.1500857 C30.302758,31.1360857 30.380758,31.0740857 30.463758,30.9950857 C30.505758,30.9480857 30.547758,30.9050857 30.588758,30.8660857 C30.923758,30.4730857 31.300758,29.7920857 31.680758,29.6270857 C32.515758,29.2690857 33.472758,29.5860857 34.331758,29.6880857 C37.194758,30.0180857 40.023758,29.4050857 42.848758,29.0310857 C44.424758,28.8200857 45.893758,28.7420857 47.380758,28.1400857 C49.669758,27.2090857 54.243758,24.7830857 52.436758,21.7810857 C52.446758,21.9030857 52.468758,22.0140857 52.363758,21.9960857 L52.363758,21.9960857 Z M44.394758,27.0840857 C43.205758,27.0840857 42.235758,26.1160857 42.235758,24.9280857 C42.235758,23.7380857 43.205758,22.7650857 44.394758,22.7650857 C45.575758,22.7650857 46.555758,23.7380857 46.555758,24.9280857 C46.555758,26.1160857 45.575758,27.0840857 44.394758,27.0840857 L44.394758,27.0840857 Z" id="Imported-Layers" fill="#FDFDFD" sketch:type="MSShapeGroup"></path>
    </g>
</svg>