<?xml version="1.0" encoding="UTF-8" standalone="no"?>
<svg width="29px" height="31px" viewBox="0 0 29 31" version="1.1" xmlns="http://www.w3.org/2000/svg" xmlns:xlink="http://www.w3.org/1999/xlink" xmlns:sketch="http://www.bohemiancoding.com/sketch/ns">
    <!-- Generator: Sketch 3.3.2 (12043) - http://www.bohemiancoding.com/sketch -->
    <title>Imported Layers</title>
    <desc>Created with Sketch.</desc>
    <defs></defs>
    <g id="Page-1" stroke="none" stroke-width="1" fill="none" fill-rule="evenodd" sketch:type="MSPage">
        <g id="Imported-Layers" sketch:type="MSLayerGroup">
            <path d="M10.227,5.088 C10.227,7.694 8.114,9.806 5.509,9.806 C2.904,9.806 0.792,7.694 0.792,5.088 C0.792,2.483 2.904,0.371 5.509,0.371 C8.114,0.371 10.227,2.483 10.227,5.088" id="Fill-1" fill="#1986C8" sketch:type="MSShapeGroup"></path>
            <path d="M10.227,26.088 C10.227,28.694 8.114,30.806 5.509,30.806 C2.904,30.806 0.792,28.694 0.792,26.088 C0.792,23.483 2.904,21.371 5.509,21.371 C8.114,21.371 10.227,23.483 10.227,26.088" id="Fill-2" fill="#1986C8" sketch:type="MSShapeGroup"></path>
            <path d="M28.227,15.088 C28.227,17.694 26.114,19.806 23.509,19.806 C20.904,19.806 18.792,17.694 18.792,15.088 C18.792,12.483 20.904,10.371 23.509,10.371 C26.114,10.371 28.227,12.483 28.227,15.088" id="Fill-3" fill="#1986C8" sketch:type="MSShapeGroup"></path>
            <path d="M5.509,5.088 L23.509,15.088 L5.509,26.088" id="Stroke-4" stroke="#1986C8" stroke-width="2" sketch:type="MSShapeGroup"></path>
        </g>
    </g>
</svg>