<?xml version="1.0" encoding="UTF-8" standalone="no"?>
<svg width="42px" height="33px" viewBox="0 0 42 33" version="1.1" xmlns="http://www.w3.org/2000/svg" xmlns:xlink="http://www.w3.org/1999/xlink" xmlns:sketch="http://www.bohemiancoding.com/sketch/ns">
    <!-- Generator: Sketch 3.3.2 (12043) - http://www.bohemiancoding.com/sketch -->
    <title>Imported Layers</title>
    <desc>Created with Sketch.</desc>
    <defs></defs>
    <g id="Page-1" stroke="none" stroke-width="1" fill="none" fill-rule="evenodd" sketch:type="MSPage">
        <g id="Imported-Layers" sketch:type="MSLayerGroup">
            <path d="M30,30.409 C30,31.84 28.84,33 27.409,33 L2.591,33 C1.16,33 0,31.84 0,30.409 L0,14.591 C0,13.16 1.16,12 2.591,12 L27.409,12 C28.84,12 30,13.16 30,14.591 L30,30.409" id="Fill-1" fill="#1986C8" sketch:type="MSShapeGroup"></path>
            <path d="M25.488,28.998 L15.55,21.564 C15.215,21.314 14.667,21.314 14.333,21.564 L4.392,28.998" id="Fill-2" fill="#1986C8" sketch:type="MSShapeGroup"></path>
            <path d="M25.488,28.998 L15.55,21.564 C15.215,21.314 14.667,21.314 14.333,21.564 L4.392,28.998" id="Stroke-3" stroke="#FFFFFF" stroke-width="3" stroke-linecap="round" sketch:type="MSShapeGroup"></path>
            <path d="M4.392,17.353 L14.333,24.787 C14.667,25.038 15.215,25.038 15.55,24.787 L25.488,17.353" id="Fill-4" fill="#1986C8" sketch:type="MSShapeGroup"></path>
            <path d="M4.392,17.353 L14.333,24.787 C14.667,25.038 15.215,25.038 15.55,24.787 L25.488,17.353" id="Stroke-5" stroke="#FFFFFF" stroke-width="3" stroke-linecap="round" sketch:type="MSShapeGroup"></path>
            <path d="M32.914,9.104 L27.357,9.104 L27.357,5.96 L32.914,5.96 L32.914,0.36 L36.059,0.36 L36.059,5.96 L41.615,5.96 L41.615,9.104 L36.059,9.104 L36.059,14.632 L32.914,14.632 L32.914,9.104" id="Fill-6" fill="#1986C8" sketch:type="MSShapeGroup"></path>
        </g>
    </g>
</svg>