<?xml version="1.0" encoding="UTF-8" standalone="no"?>
<svg width="33px" height="45px" viewBox="0 0 33 45" version="1.1" xmlns="http://www.w3.org/2000/svg" xmlns:xlink="http://www.w3.org/1999/xlink" xmlns:sketch="http://www.bohemiancoding.com/sketch/ns">
    <!-- Generator: Sketch 3.3.2 (12043) - http://www.bohemiancoding.com/sketch -->
    <title>Imported Layers</title>
    <desc>Created with Sketch.</desc>
    <defs></defs>
    <g id="Page-1" stroke="none" stroke-width="1" fill="none" fill-rule="evenodd" sketch:type="MSPage">
        <g id="Imported-Layers" sketch:type="MSLayerGroup" fill="#FFFFFF">
            <path d="M6.527,23.423 C6.527,23.96 6.963,24.396 7.5,24.396 L25.152,24.396 C25.69,24.396 26.126,23.96 26.126,23.423 C26.126,22.885 25.69,22.449 25.152,22.449 L7.5,22.449 C6.963,22.449 6.527,22.885 6.527,23.423" id="Fill-1" sketch:type="MSShapeGroup"></path>
            <path d="M25.152,26.76 L7.5,26.76 C6.963,26.76 6.527,27.196 6.527,27.734 C6.527,28.271 6.963,28.707 7.5,28.707 L25.152,28.707 C25.69,28.707 26.126,28.271 26.126,27.734 C26.126,27.196 25.69,26.76 25.152,26.76" id="Fill-2" sketch:type="MSShapeGroup"></path>
            <path d="M25.152,31.071 L7.5,31.071 C6.963,31.071 6.527,31.507 6.527,32.045 C6.527,32.582 6.963,33.018 7.5,33.018 L25.152,33.018 C25.69,33.018 26.126,32.582 26.126,32.045 C26.126,31.507 25.69,31.071 25.152,31.071" id="Fill-3" sketch:type="MSShapeGroup"></path>
            <path d="M25.152,35.382 L7.5,35.382 C6.963,35.382 6.527,35.818 6.527,36.356 C6.527,36.893 6.963,37.329 7.5,37.329 L25.152,37.329 C25.69,37.329 26.126,36.893 26.126,36.356 C26.126,35.818 25.69,35.382 25.152,35.382" id="Fill-4" sketch:type="MSShapeGroup"></path>
            <path d="M32.291,8.535 L24.063,0.306 C23.932,0.176 23.755,0.102 23.57,0.102 L2.279,0.102 C1.121,0.102 0.18,1.044 0.18,2.202 L0.18,42.626 C0.18,43.783 1.121,44.725 2.279,44.725 L30.396,44.725 C31.553,44.725 32.495,43.783 32.495,42.626 L32.495,9.028 C32.495,8.843 32.422,8.665 32.291,8.535 L32.291,8.535 Z M29.427,41.657 L3.247,41.657 L3.247,3.17 L22.705,3.17 L22.705,7.829 C22.705,8.987 23.647,9.928 24.804,9.928 L29.427,9.928 L29.427,41.657 L29.427,41.657 Z" id="Fill-5" sketch:type="MSShapeGroup"></path>
            <path d="M17.04,11.745 L12.017,12.895 L13.167,7.872 C11.407,7.431 9.467,7.898 8.09,9.275 C6.006,11.359 6.006,14.738 8.09,16.823 C10.175,18.907 13.554,18.907 15.638,16.823 C17.015,15.446 17.482,13.505 17.04,11.745" id="Fill-6" sketch:type="MSShapeGroup"></path>
            <path d="M17.088,7.824 C16.38,7.116 15.523,6.649 14.618,6.422 L13.468,11.445 L18.491,10.295 C18.263,9.39 17.796,8.532 17.088,7.824" id="Fill-7" sketch:type="MSShapeGroup"></path>
        </g>
    </g>
</svg>