<?xml version="1.0" encoding="UTF-8" standalone="no"?>
<svg width="47px" height="39px" viewBox="0 0 47 39" version="1.1" xmlns="http://www.w3.org/2000/svg" xmlns:xlink="http://www.w3.org/1999/xlink" xmlns:sketch="http://www.bohemiancoding.com/sketch/ns">
    <!-- Generator: Sketch 3.3.2 (12043) - http://www.bohemiancoding.com/sketch -->
    <title>Imported Layers</title>
    <desc>Created with Sketch.</desc>
    <defs></defs>
    <g id="Page-1" stroke="none" stroke-width="1" fill="none" fill-rule="evenodd" sketch:type="MSPage">
        <g id="Imported-Layers" sketch:type="MSLayerGroup" transform="translate(2.000000, 2.000000)" stroke="#FFFFFF" stroke-linecap="round">
            <path d="M8.531,4.524 C8.531,6.711 6.758,8.482 4.57,8.482 C2.383,8.482 0.611,6.711 0.611,4.524 C0.611,2.336 2.383,0.564 4.57,0.564 C6.758,0.564 8.531,2.336 8.531,4.524 L8.531,4.524 Z" id="Stroke-1" stroke-width="3.675" sketch:type="MSShapeGroup"></path>
            <path d="M15,6.5 L42,6.5" id="Stroke-2" stroke-width="5" sketch:type="MSShapeGroup"></path>
            <path d="M8.531,17.752 C8.531,19.938 6.758,21.71 4.57,21.71 C2.383,21.71 0.611,19.938 0.611,17.752 C0.611,15.564 2.383,13.793 4.57,13.793 C6.758,13.793 8.531,15.564 8.531,17.752 L8.531,17.752 Z" id="Stroke-3" stroke-width="3.675" sketch:type="MSShapeGroup"></path>
            <path d="M15,19.5 L42,19.5" id="Stroke-4" stroke-width="5" sketch:type="MSShapeGroup"></path>
            <path d="M8.531,30.98 C8.531,33.168 6.758,34.938 4.57,34.938 C2.383,34.938 0.611,33.168 0.611,30.98 C0.611,28.792 2.383,27.02 4.57,27.02 C6.758,27.02 8.531,28.792 8.531,30.98 L8.531,30.98 Z" id="Stroke-5" stroke-width="3.675" sketch:type="MSShapeGroup"></path>
            <path d="M15,32.5 L42,32.5" id="Stroke-6" stroke-width="5" sketch:type="MSShapeGroup"></path>
        </g>
    </g>
</svg>