<?xml version="1.0" encoding="UTF-8" standalone="no"?>
<svg width="29px" height="30px" viewBox="0 0 29 30" version="1.1" xmlns="http://www.w3.org/2000/svg" xmlns:xlink="http://www.w3.org/1999/xlink" xmlns:sketch="http://www.bohemiancoding.com/sketch/ns">
    <!-- Generator: Sketch 3.3.2 (12043) - http://www.bohemiancoding.com/sketch -->
    <title>Imported Layers</title>
    <desc>Created with Sketch.</desc>
    <defs></defs>
    <g id="Page-1" stroke="none" stroke-width="1" fill="none" fill-rule="evenodd" sketch:type="MSPage">
        <g id="Imported-Layers" sketch:type="MSLayerGroup" fill="#1986C8">
            <path d="M17.994,12.996 C17.994,10.178 15.701,7.886 12.885,7.886 C10.066,7.886 7.771,10.178 7.771,12.996 C7.771,15.814 10.066,18.107 12.885,18.107 C15.701,18.107 17.994,15.814 17.994,12.996" id="Fill-1" sketch:type="MSShapeGroup"></path>
            <path d="M14.691,0.737 C6.78,0.737 0.367,7.151 0.367,15.064 C0.367,22.973 6.78,29.388 14.691,29.388 C22.603,29.388 29.019,22.973 29.019,15.064 C29.019,7.151 22.603,0.737 14.691,0.737 L14.691,0.737 Z M21.155,24.352 L16.451,19.648 C15.383,20.224 14.181,20.581 12.885,20.581 C8.7,20.581 5.297,17.179 5.297,12.996 C5.297,8.814 8.7,5.41 12.885,5.41 C17.066,5.41 20.468,8.814 20.468,12.996 C20.468,14.981 19.685,16.776 18.432,18.13 L22.904,22.601 L21.155,24.352 L21.155,24.352 Z" id="Fill-2" sketch:type="MSShapeGroup"></path>
        </g>
    </g>
</svg>