<?xml version="1.0" encoding="UTF-8" standalone="no"?>
<svg width="349px" height="59px" viewBox="0 0 349 59" version="1.1" xmlns="http://www.w3.org/2000/svg" xmlns:xlink="http://www.w3.org/1999/xlink" xmlns:sketch="http://www.bohemiancoding.com/sketch/ns">
    <!-- Generator: Sketch 3.3.2 (12043) - http://www.bohemiancoding.com/sketch -->
    <title>Imported Layers</title>
    <desc>Created with Sketch.</desc>
    <defs>
        <path id="path-1" d="M0.646,21.682 C10.427,11.581 23.606,3.971 37.257,0.591 C47.143,10.297 54.672,23.341 57.6,36.919 C48.283,47.007 35.361,54.469 21.977,57.535 C11.679,48.177 4.136,35.117 0.646,21.682"></path>
        <path id="path-3" d="M34.2292114,58.94 C45.1843288,50.6959825 53.9321263,38.6419832 58.335,25.657 C50.137,14.444 37.953,5.589 24.972,0.742 C13.878,9.383 4.934,21.697 0.105,34.902 C8.73162732,45.7209252 20.8876421,54.5649439 34.055207,58.9400001 L34.229212,58.94"></path>
        <path id="path-5" d="M11.1068356,9.34202498 C16.7225648,5.59992869 22.8439514,2.55493601 29.1666351,0.387936336 C34.9428742,3.17278159 40.4455261,6.738937 45.3703806,10.9290031 C49.0021619,16.4581628 51.9337047,22.4836039 53.9362199,28.7194423 C51.2515503,34.642391 47.6840389,40.260252 43.4546839,45.2753776 C38.1501009,48.840712 32.345811,51.7173872 26.3407005,53.7370832 C20.3013975,51.0837989 14.5685805,47.5194405 9.40565071,43.3049213 C5.73625985,37.9273131 2.75293095,32.0384672 0.581355003,25.9605516 C3.34953714,20.0549602 6.92130848,14.4258641 11.1068356,9.34202498 L11.1068356,9.34202498"></path>
    </defs>
    <g id="Page-1" stroke="none" stroke-width="1" fill="none" fill-rule="evenodd" sketch:type="MSPage">
        <g id="Imported-Layers" sketch:type="MSLayerGroup">
            <path d="M178.441,15.136 C178.441,16.32 178.112,17.279 177.455,18.013 C176.797,18.747 175.961,19.114 174.947,19.114 C173.796,19.114 172.871,18.945 172.174,18.611 L172.174,17.563 C172.517,17.755 172.94,17.907 173.447,18.018 C173.954,18.13 174.454,18.185 174.947,18.185 C175.684,18.185 176.29,17.907 176.764,17.347 C177.237,16.787 177.475,16.077 177.475,15.215 C177.475,14.419 177.307,13.787 176.971,13.319 C176.636,12.852 175.994,12.385 175.046,11.918 C174.303,11.543 173.747,11.18 173.378,10.827 C173.01,10.476 172.736,10.066 172.558,9.599 C172.381,9.131 172.293,8.571 172.293,7.92 C172.293,7.21 172.437,6.578 172.727,6.026 C173.017,5.473 173.421,5.043 173.94,4.737 C174.461,4.431 175.03,4.279 175.648,4.279 C176.208,4.279 176.716,4.341 177.174,4.466 C177.631,4.591 177.991,4.726 178.254,4.87 L177.879,5.798 C177.148,5.423 176.405,5.235 175.648,5.235 C174.937,5.235 174.36,5.478 173.916,5.961 C173.472,6.445 173.25,7.085 173.25,7.881 C173.25,8.69 173.411,9.319 173.733,9.766 C174.056,10.214 174.687,10.678 175.629,11.158 C176.603,11.632 177.314,12.185 177.766,12.822 C178.217,13.456 178.441,14.228 178.441,15.136" id="Fill-1" fill="#1986C8" sketch:type="MSShapeGroup"></path>
            <path d="M180.89,4.485 L181.858,4.485 L181.858,18.916 L180.89,18.916 L180.89,4.485 Z" id="Fill-2" fill="#1986C8" sketch:type="MSShapeGroup"></path>
            <path d="M190.553,15.136 C190.553,16.32 190.224,17.279 189.566,18.013 C188.908,18.747 188.072,19.114 187.059,19.114 C185.907,19.114 184.982,18.945 184.285,18.611 L184.285,17.563 C184.628,17.755 185.052,17.907 185.559,18.018 C186.065,18.13 186.565,18.185 187.059,18.185 C187.796,18.185 188.401,17.907 188.875,17.347 C189.349,16.787 189.586,16.077 189.586,15.215 C189.586,14.419 189.418,13.787 189.082,13.319 C188.747,12.852 188.105,12.385 187.157,11.918 C186.414,11.543 185.858,11.18 185.489,10.827 C185.121,10.476 184.848,10.066 184.67,9.599 C184.492,9.131 184.404,8.571 184.404,7.92 C184.404,7.21 184.549,6.578 184.838,6.026 C185.128,5.473 185.532,5.043 186.052,4.737 C186.572,4.431 187.142,4.279 187.76,4.279 C188.319,4.279 188.827,4.341 189.285,4.466 C189.742,4.591 190.103,4.726 190.365,4.87 L189.99,5.798 C189.26,5.423 188.516,5.235 187.76,5.235 C187.049,5.235 186.472,5.478 186.027,5.961 C185.583,6.445 185.361,7.085 185.361,7.881 C185.361,8.69 185.522,9.319 185.845,9.766 C186.167,10.214 186.799,10.678 187.74,11.158 C188.714,11.632 189.426,12.185 189.877,12.822 C190.328,13.456 190.553,14.228 190.553,15.136" id="Fill-3" fill="#1986C8" sketch:type="MSShapeGroup"></path>
            <path d="M195.399,18.916 L194.433,18.916 L194.433,5.413 L191.56,5.413 L191.56,4.485 L198.272,4.485 L198.272,5.413 L195.399,5.413 L195.399,18.916" id="Fill-4" fill="#1986C8" sketch:type="MSShapeGroup"></path>
            <path d="M205.25,18.916 L200.018,18.916 L200.018,4.485 L205.25,4.485 L205.25,5.413 L200.986,5.413 L200.986,10.892 L205.014,10.892 L205.014,11.819 L200.986,11.819 L200.986,17.989 L205.25,17.989 L205.25,18.916" id="Fill-5" fill="#1986C8" sketch:type="MSShapeGroup"></path>
            <path d="M212.545,18.916 L208.705,5.779 L208.626,5.779 C208.691,7.16 208.725,8.035 208.725,8.405 L208.725,18.916 L207.797,18.916 L207.797,4.485 L209.228,4.485 L212.466,15.521 C212.755,16.494 212.942,17.323 213.028,18.008 L213.107,18.008 C213.173,17.522 213.377,16.699 213.72,15.54 L216.928,4.485 L218.408,4.485 L218.408,18.916 L217.44,18.916 L217.44,8.482 C217.44,8.075 217.474,7.18 217.539,5.798 L217.46,5.798 L213.641,18.916 L212.545,18.916" id="Fill-6" fill="#1986C8" sketch:type="MSShapeGroup"></path>
            <path d="M227.025,18.916 L225.752,13.685 L222.248,13.685 L220.994,18.916 L219.987,18.916 L223.462,4.485 L224.459,4.485 L228.012,18.916 L227.025,18.916 L227.025,18.916 Z M225.524,12.707 L224.251,7.328 C224.12,6.723 224.018,6.15 223.945,5.61 C223.886,6.183 223.794,6.756 223.669,7.328 L222.435,12.707 L225.524,12.707 L225.524,12.707 Z" id="Fill-7" fill="#1986C8" sketch:type="MSShapeGroup"></path>
            <path d="M240.547,11.562 C240.547,16.465 239.017,18.916 235.957,18.916 L233.391,18.916 L233.391,4.485 L236.017,4.485 C237.503,4.485 238.63,5.086 239.397,6.287 C240.163,7.488 240.547,9.246 240.547,11.562 L240.547,11.562 Z M239.53,11.622 C239.53,9.589 239.23,8.039 238.632,6.973 C238.033,5.907 237.148,5.374 235.977,5.374 L234.358,5.374 L234.358,18.027 L235.897,18.027 C237.148,18.027 238.066,17.481 238.651,16.39 C239.237,15.297 239.53,13.708 239.53,11.622 L239.53,11.622 Z" id="Fill-8" fill="#1986C8" sketch:type="MSShapeGroup"></path>
            <path d="M248.443,18.916 L243.212,18.916 L243.212,4.485 L248.443,4.485 L248.443,5.413 L244.18,5.413 L244.18,10.892 L248.207,10.892 L248.207,11.819 L244.18,11.819 L244.18,17.989 L248.443,17.989 L248.443,18.916" id="Fill-9" fill="#1986C8" sketch:type="MSShapeGroup"></path>
            <path d="M254.79,4.485 L255.758,4.485 L255.758,18.916 L254.79,18.916 L254.79,4.485 Z" id="Fill-10" fill="#1986C8" sketch:type="MSShapeGroup"></path>
            <path d="M266.517,18.916 L265.282,18.916 L259.824,5.976 L259.745,5.976 C259.824,6.871 259.863,7.732 259.863,8.562 L259.863,18.916 L258.916,18.916 L258.916,4.485 L260.17,4.485 L265.589,17.277 L265.647,17.277 C265.595,16.198 265.569,15.297 265.569,14.573 L265.569,4.485 L266.517,4.485 L266.517,18.916" id="Fill-11" fill="#1986C8" sketch:type="MSShapeGroup"></path>
            <path d="M270.643,18.916 L269.675,18.916 L269.675,4.485 L274.926,4.485 L274.926,5.413 L270.643,5.413 L270.643,11.533 L274.689,11.533 L274.689,12.471 L270.643,12.471 L270.643,18.916" id="Fill-12" fill="#1986C8" sketch:type="MSShapeGroup"></path>
            <path d="M284.707,11.681 C284.707,14.069 284.351,15.905 283.637,17.188 C282.923,18.472 281.891,19.114 280.542,19.114 C279.18,19.114 278.146,18.467 277.442,17.174 C276.738,15.881 276.387,14.043 276.387,11.661 C276.387,9.174 276.735,7.321 277.433,6.105 C278.13,4.887 279.177,4.279 280.571,4.279 C281.914,4.279 282.938,4.918 283.646,6.199 C284.353,7.478 284.707,9.306 284.707,11.681 L284.707,11.681 Z M277.393,11.681 C277.393,13.826 277.661,15.447 278.198,16.542 C278.734,17.638 279.516,18.185 280.542,18.185 C281.575,18.185 282.359,17.643 282.896,16.557 C283.433,15.472 283.701,13.846 283.701,11.681 C283.701,9.542 283.437,7.929 282.911,6.84 C282.385,5.75 281.604,5.206 280.571,5.206 C279.512,5.206 278.718,5.757 278.188,6.86 C277.658,7.962 277.393,9.568 277.393,11.681 L277.393,11.681 Z" id="Fill-13" fill="#1986C8" sketch:type="MSShapeGroup"></path>
            <path d="M288.35,12.609 L288.35,18.916 L287.382,18.916 L287.382,4.485 L289.356,4.485 C290.765,4.485 291.794,4.818 292.445,5.482 C293.097,6.147 293.423,7.141 293.423,8.463 C293.423,9.464 293.245,10.286 292.89,10.931 C292.534,11.576 291.938,12.06 291.103,12.382 L293.966,18.916 L292.88,18.916 L290.185,12.609 L288.35,12.609 L288.35,12.609 Z M288.35,11.721 L289.701,11.721 C290.577,11.721 291.251,11.45 291.725,10.911 C292.199,10.371 292.435,9.568 292.435,8.503 C292.435,7.417 292.194,6.634 291.71,6.154 C291.227,5.673 290.465,5.433 289.425,5.433 L288.35,5.433 L288.35,11.721 L288.35,11.721 Z" id="Fill-14" fill="#1986C8" sketch:type="MSShapeGroup"></path>
            <path d="M300.717,18.916 L296.877,5.779 L296.798,5.779 C296.863,7.16 296.896,8.035 296.896,8.405 L296.896,18.916 L295.969,18.916 L295.969,4.485 L297.4,4.485 L300.638,15.521 C300.927,16.494 301.114,17.323 301.2,18.008 L301.279,18.008 C301.345,17.522 301.549,16.699 301.892,15.54 L305.1,4.485 L306.58,4.485 L306.58,18.916 L305.612,18.916 L305.612,8.482 C305.612,8.075 305.645,7.18 305.711,5.798 L305.632,5.798 L301.812,18.916 L300.717,18.916" id="Fill-15" fill="#1986C8" sketch:type="MSShapeGroup"></path>
            <path d="M315.197,18.916 L313.924,13.685 L310.42,13.685 L309.166,18.916 L308.159,18.916 L311.634,4.485 L312.631,4.485 L316.183,18.916 L315.197,18.916 L315.197,18.916 Z M313.696,12.707 L312.423,7.328 C312.292,6.723 312.189,6.15 312.117,5.61 C312.058,6.183 311.966,6.756 311.841,7.328 L310.607,12.707 L313.696,12.707 L313.696,12.707 Z" id="Fill-16" fill="#1986C8" sketch:type="MSShapeGroup"></path>
            <path d="M321.84,5.187 C320.754,5.187 319.89,5.761 319.248,6.908 C318.606,8.057 318.286,9.648 318.286,11.681 C318.286,13.004 318.433,14.156 318.73,15.136 C319.026,16.116 319.451,16.869 320.004,17.396 C320.557,17.923 321.198,18.185 321.929,18.185 C322.679,18.185 323.323,18.051 323.863,17.781 L323.863,18.669 C323.349,18.966 322.675,19.114 321.84,19.114 C320.925,19.114 320.123,18.817 319.435,18.225 C318.748,17.633 318.217,16.775 317.842,15.654 C317.467,14.532 317.279,13.201 317.279,11.661 C317.279,9.358 317.688,7.549 318.508,6.232 C319.327,4.916 320.444,4.259 321.859,4.259 C322.741,4.259 323.511,4.462 324.169,4.87 L323.724,5.719 C323.172,5.364 322.543,5.187 321.84,5.187" id="Fill-17" fill="#1986C8" sketch:type="MSShapeGroup"></path>
            <path d="M326.251,4.485 L327.219,4.485 L327.219,18.916 L326.251,18.916 L326.251,4.485 Z" id="Fill-18" fill="#1986C8" sketch:type="MSShapeGroup"></path>
            <path d="M338.214,11.681 C338.214,14.069 337.857,15.905 337.144,17.188 C336.43,18.472 335.397,19.114 334.049,19.114 C332.686,19.114 331.653,18.467 330.949,17.174 C330.245,15.881 329.893,14.043 329.893,11.661 C329.893,9.174 330.242,7.321 330.939,6.105 C331.637,4.887 332.683,4.279 334.078,4.279 C335.421,4.279 336.445,4.918 337.153,6.199 C337.86,7.478 338.214,9.306 338.214,11.681 L338.214,11.681 Z M330.9,11.681 C330.9,13.826 331.168,15.447 331.705,16.542 C332.241,17.638 333.022,18.185 334.049,18.185 C335.082,18.185 335.866,17.643 336.403,16.557 C336.939,15.472 337.208,13.846 337.208,11.681 C337.208,9.542 336.944,7.929 336.418,6.84 C335.891,5.75 335.111,5.206 334.078,5.206 C333.019,5.206 332.225,5.757 331.695,6.86 C331.165,7.962 330.9,9.568 330.9,11.681 L330.9,11.681 Z M333.328,3.33 L333.328,3.123 C334.164,2.031 334.793,1.021 335.214,0.093 L336.447,0.093 L336.447,0.261 C336.19,0.722 335.801,1.251 335.278,1.85 C334.755,2.45 334.26,2.943 333.792,3.33 L333.328,3.33 L333.328,3.33 Z" id="Fill-19" fill="#1986C8" sketch:type="MSShapeGroup"></path>
            <path d="M348.489,18.916 L347.255,18.916 L341.797,5.976 L341.718,5.976 C341.797,6.871 341.836,7.732 341.836,8.562 L341.836,18.916 L340.889,18.916 L340.889,4.485 L342.143,4.485 L347.562,17.277 L347.62,17.277 C347.567,16.198 347.542,15.297 347.542,14.573 L347.542,4.485 L348.489,4.485 L348.489,18.916" id="Fill-20" fill="#1986C8" sketch:type="MSShapeGroup"></path>
            <path d="M178.441,32.771 C178.441,33.955 178.112,34.914 177.455,35.648 C176.797,36.382 175.961,36.748 174.947,36.748 C173.796,36.748 172.871,36.58 172.174,36.245 L172.174,35.198 C172.517,35.39 172.94,35.541 173.447,35.652 C173.954,35.765 174.454,35.82 174.947,35.82 C175.684,35.82 176.29,35.541 176.764,34.982 C177.237,34.422 177.475,33.712 177.475,32.85 C177.475,32.054 177.307,31.422 176.971,30.954 C176.636,30.487 175.994,30.02 175.046,29.553 C174.303,29.178 173.747,28.814 173.378,28.462 C173.01,28.11 172.736,27.7 172.558,27.234 C172.381,26.766 172.293,26.206 172.293,25.555 C172.293,24.845 172.437,24.213 172.727,23.66 C173.017,23.107 173.421,22.678 173.94,22.372 C174.461,22.066 175.03,21.913 175.648,21.913 C176.208,21.913 176.716,21.976 177.174,22.101 C177.631,22.226 177.991,22.361 178.254,22.505 L177.879,23.433 C177.148,23.058 176.405,22.87 175.648,22.87 C174.937,22.87 174.36,23.112 173.916,23.596 C173.472,24.079 173.25,24.72 173.25,25.516 C173.25,26.325 173.411,26.953 173.733,27.401 C174.056,27.849 174.687,28.313 175.629,28.793 C176.603,29.267 177.314,29.82 177.766,30.456 C178.217,31.091 178.441,31.863 178.441,32.771" id="Fill-21" fill="#1986C8" sketch:type="MSShapeGroup"></path>
            <path d="M188.727,29.315 C188.727,31.704 188.37,33.54 187.656,34.823 C186.942,36.107 185.91,36.748 184.561,36.748 C183.199,36.748 182.166,36.102 181.462,34.809 C180.758,33.516 180.406,31.678 180.406,29.296 C180.406,26.809 180.755,24.956 181.452,23.739 C182.149,22.521 183.196,21.913 184.591,21.913 C185.934,21.913 186.958,22.553 187.666,23.833 C188.373,25.113 188.727,26.941 188.727,29.315 L188.727,29.315 Z M181.413,29.315 C181.413,31.461 181.681,33.081 182.218,34.177 C182.754,35.273 183.535,35.82 184.561,35.82 C185.595,35.82 186.379,35.277 186.916,34.191 C187.452,33.107 187.721,31.481 187.721,29.315 C187.721,27.177 187.457,25.564 186.931,24.475 C186.404,23.385 185.624,22.841 184.591,22.841 C183.531,22.841 182.737,23.392 182.208,24.494 C181.678,25.597 181.413,27.203 181.413,29.315 L181.413,29.315 Z" id="Fill-22" fill="#1986C8" sketch:type="MSShapeGroup"></path>
            <path d="M191.401,22.12 L194.165,22.12 C195.297,22.12 196.167,22.41 196.776,22.988 C197.385,23.568 197.689,24.423 197.689,25.555 C197.689,27.51 196.975,28.628 195.547,28.911 L195.547,28.99 C196.37,29.161 196.981,29.528 197.383,30.091 C197.784,30.653 197.985,31.437 197.985,32.444 C197.985,33.734 197.699,34.741 197.126,35.465 C196.554,36.19 195.751,36.551 194.718,36.551 L191.401,36.551 L191.401,22.12 L191.401,22.12 Z M192.369,28.546 L194.185,28.546 C195.087,28.546 195.729,28.298 196.114,27.801 C196.5,27.304 196.692,26.549 196.692,25.535 C196.692,24.72 196.479,24.094 196.056,23.66 C195.631,23.226 195.001,23.009 194.165,23.009 L192.369,23.009 L192.369,28.546 L192.369,28.546 Z M192.369,29.435 L192.369,35.662 L194.59,35.662 C196.182,35.662 196.978,34.583 196.978,32.425 C196.978,31.464 196.745,30.726 196.277,30.209 C195.81,29.692 195.155,29.435 194.313,29.435 L192.369,29.435 L192.369,29.435 Z" id="Fill-23" fill="#1986C8" sketch:type="MSShapeGroup"></path>
            <path d="M201.321,30.243 L201.321,36.551 L200.353,36.551 L200.353,22.12 L202.328,22.12 C203.736,22.12 204.766,22.452 205.417,23.117 C206.068,23.782 206.395,24.776 206.395,26.098 C206.395,27.099 206.217,27.921 205.861,28.565 C205.506,29.211 204.91,29.695 204.075,30.017 L206.937,36.551 L205.851,36.551 L203.157,30.243 L201.321,30.243 L201.321,30.243 Z M201.321,29.356 L202.673,29.356 C203.549,29.356 204.223,29.085 204.696,28.546 C205.171,28.006 205.407,27.203 205.407,26.138 C205.407,25.052 205.166,24.269 204.682,23.788 C204.198,23.308 203.436,23.067 202.396,23.067 L201.321,23.067 L201.321,29.356 L201.321,29.356 Z" id="Fill-24" fill="#1986C8" sketch:type="MSShapeGroup"></path>
            <path d="M214.172,36.551 L208.94,36.551 L208.94,22.12 L214.172,22.12 L214.172,23.048 L209.908,23.048 L209.908,28.527 L213.936,28.527 L213.936,29.454 L209.908,29.454 L209.908,35.623 L214.172,35.623 L214.172,36.551" id="Fill-25" fill="#1986C8" sketch:type="MSShapeGroup"></path>
            <path d="M220.519,22.12 L223.282,22.12 C224.414,22.12 225.284,22.41 225.893,22.988 C226.502,23.568 226.807,24.423 226.807,25.555 C226.807,27.51 226.092,28.628 224.664,28.911 L224.664,28.99 C225.487,29.161 226.099,29.528 226.5,30.091 C226.901,30.653 227.102,31.437 227.102,32.444 C227.102,33.734 226.816,34.741 226.243,35.465 C225.671,36.19 224.868,36.551 223.835,36.551 L220.519,36.551 L220.519,22.12 L220.519,22.12 Z M221.486,28.546 L223.302,28.546 C224.204,28.546 224.847,28.298 225.231,27.801 C225.617,27.304 225.81,26.549 225.81,25.535 C225.81,24.72 225.597,24.094 225.173,23.66 C224.748,23.226 224.118,23.009 223.282,23.009 L221.486,23.009 L221.486,28.546 L221.486,28.546 Z M221.486,29.435 L221.486,35.662 L223.707,35.662 C225.299,35.662 226.096,34.583 226.096,32.425 C226.096,31.464 225.862,30.726 225.394,30.209 C224.928,29.692 224.272,29.435 223.431,29.435 L221.486,29.435 L221.486,29.435 Z" id="Fill-26" fill="#1986C8" sketch:type="MSShapeGroup"></path>
            <path d="M229.471,22.12 L230.439,22.12 L230.439,36.551 L229.471,36.551 L229.471,22.12 Z" id="Fill-27" fill="#1986C8" sketch:type="MSShapeGroup"></path>
            <path d="M241.434,29.315 C241.434,31.704 241.077,33.54 240.363,34.823 C239.649,36.107 238.617,36.748 237.268,36.748 C235.906,36.748 234.873,36.102 234.169,34.809 C233.465,33.516 233.113,31.678 233.113,29.296 C233.113,26.809 233.462,24.956 234.159,23.739 C234.856,22.521 235.903,21.913 237.298,21.913 C238.641,21.913 239.665,22.553 240.373,23.833 C241.08,25.113 241.434,26.941 241.434,29.315 L241.434,29.315 Z M234.12,29.315 C234.12,31.461 234.388,33.081 234.925,34.177 C235.461,35.273 236.242,35.82 237.268,35.82 C238.302,35.82 239.086,35.277 239.623,34.191 C240.159,33.107 240.428,31.481 240.428,29.315 C240.428,27.177 240.164,25.564 239.638,24.475 C239.111,23.385 238.331,22.841 237.298,22.841 C236.238,22.841 235.444,23.392 234.915,24.494 C234.385,25.597 234.12,27.203 234.12,29.315 L234.12,29.315 Z" id="Fill-28" fill="#1986C8" sketch:type="MSShapeGroup"></path>
            <path d="M251.265,29.197 C251.265,34.1 249.734,36.551 246.675,36.551 L244.108,36.551 L244.108,22.12 L246.734,22.12 C248.221,22.12 249.348,22.721 250.115,23.922 C250.881,25.122 251.265,26.881 251.265,29.197 L251.265,29.197 Z M250.248,29.257 C250.248,27.224 249.948,25.674 249.35,24.607 C248.751,23.541 247.866,23.009 246.694,23.009 L245.076,23.009 L245.076,35.662 L246.615,35.662 C247.866,35.662 248.784,35.116 249.369,34.025 C249.955,32.932 250.248,31.343 250.248,29.257 L250.248,29.257 Z" id="Fill-29" fill="#1986C8" sketch:type="MSShapeGroup"></path>
            <path d="M253.93,22.12 L254.898,22.12 L254.898,36.551 L253.93,36.551 L253.93,22.12 Z" id="Fill-30" fill="#1986C8" sketch:type="MSShapeGroup"></path>
            <path d="M263.366,22.12 L264.363,22.12 L260.948,36.551 L259.872,36.551 L256.476,22.12 L257.483,22.12 L259.833,32.267 C260.017,33.044 260.139,33.614 260.197,33.98 C260.257,34.345 260.316,34.804 260.375,35.357 C260.428,34.975 260.484,34.6 260.543,34.232 C260.603,33.862 260.66,33.552 260.716,33.299 C260.771,33.045 261.655,29.32 263.366,22.12" id="Fill-31" fill="#1986C8" sketch:type="MSShapeGroup"></path>
            <path d="M271.174,36.551 L265.942,36.551 L265.942,22.12 L271.174,22.12 L271.174,23.048 L266.91,23.048 L266.91,28.527 L270.937,28.527 L270.937,29.454 L266.91,29.454 L266.91,35.623 L271.174,35.623 L271.174,36.551" id="Fill-32" fill="#1986C8" sketch:type="MSShapeGroup"></path>
            <path d="M274.688,30.243 L274.688,36.551 L273.721,36.551 L273.721,22.12 L275.695,22.12 C277.103,22.12 278.133,22.452 278.784,23.117 C279.435,23.782 279.762,24.776 279.762,26.098 C279.762,27.099 279.584,27.921 279.228,28.565 C278.873,29.211 278.277,29.695 277.442,30.017 L280.305,36.551 L279.219,36.551 L276.524,30.243 L274.688,30.243 L274.688,30.243 Z M274.688,29.356 L276.04,29.356 C276.916,29.356 277.59,29.085 278.063,28.546 C278.538,28.006 278.774,27.203 278.774,26.138 C278.774,25.052 278.533,24.269 278.049,23.788 C277.565,23.308 276.804,23.067 275.764,23.067 L274.688,23.067 L274.688,29.356 L274.688,29.356 Z" id="Fill-33" fill="#1986C8" sketch:type="MSShapeGroup"></path>
            <path d="M287.845,32.771 C287.845,33.955 287.516,34.914 286.858,35.648 C286.2,36.382 285.364,36.748 284.351,36.748 C283.199,36.748 282.274,36.58 281.577,36.245 L281.577,35.198 C281.92,35.39 282.344,35.541 282.851,35.652 C283.357,35.765 283.857,35.82 284.351,35.82 C285.088,35.82 285.693,35.541 286.167,34.982 C286.641,34.422 286.878,33.712 286.878,32.85 C286.878,32.054 286.71,31.422 286.374,30.954 C286.039,30.487 285.397,30.02 284.449,29.553 C283.706,29.178 283.15,28.814 282.781,28.462 C282.413,28.11 282.14,27.7 281.962,27.234 C281.784,26.766 281.696,26.206 281.696,25.555 C281.696,24.845 281.841,24.213 282.13,23.66 C282.42,23.107 282.824,22.678 283.344,22.372 C283.864,22.066 284.434,21.913 285.052,21.913 C285.611,21.913 286.119,21.976 286.577,22.101 C287.034,22.226 287.395,22.361 287.657,22.505 L287.282,23.433 C286.552,23.058 285.809,22.87 285.052,22.87 C284.341,22.87 283.764,23.112 283.319,23.596 C282.875,24.079 282.653,24.72 282.653,25.516 C282.653,26.325 282.814,26.953 283.137,27.401 C283.459,27.849 284.091,28.313 285.032,28.793 C286.006,29.267 286.718,29.82 287.169,30.456 C287.62,31.091 287.845,31.863 287.845,32.771" id="Fill-34" fill="#1986C8" sketch:type="MSShapeGroup"></path>
            <path d="M290.293,22.12 L291.261,22.12 L291.261,36.551 L290.293,36.551 L290.293,22.12 Z" id="Fill-35" fill="#1986C8" sketch:type="MSShapeGroup"></path>
            <path d="M301.575,29.197 C301.575,34.1 300.045,36.551 296.985,36.551 L294.419,36.551 L294.419,22.12 L297.045,22.12 C298.531,22.12 299.658,22.721 300.426,23.922 C301.191,25.122 301.575,26.881 301.575,29.197 L301.575,29.197 Z M300.559,29.257 C300.559,27.224 300.259,25.674 299.66,24.607 C299.061,23.541 298.177,23.009 297.005,23.009 L295.387,23.009 L295.387,35.662 L296.926,35.662 C298.177,35.662 299.095,35.116 299.68,34.025 C300.266,32.932 300.559,31.343 300.559,29.257 L300.559,29.257 Z" id="Fill-36" fill="#1986C8" sketch:type="MSShapeGroup"></path>
            <path d="M309.699,36.551 L308.426,31.319 L304.922,31.319 L303.668,36.551 L302.661,36.551 L306.136,22.12 L307.133,22.12 L310.686,36.551 L309.699,36.551 L309.699,36.551 Z M308.198,30.342 L306.925,24.963 C306.794,24.357 306.691,23.785 306.619,23.245 C306.559,23.817 306.468,24.391 306.343,24.963 L305.109,30.342 L308.198,30.342 L308.198,30.342 Z" id="Fill-37" fill="#1986C8" sketch:type="MSShapeGroup"></path>
            <path d="M319.421,29.197 C319.421,34.1 317.891,36.551 314.831,36.551 L312.265,36.551 L312.265,22.12 L314.891,22.12 C316.377,22.12 317.504,22.721 318.271,23.922 C319.037,25.122 319.421,26.881 319.421,29.197 L319.421,29.197 Z M318.404,29.257 C318.404,27.224 318.104,25.674 317.506,24.607 C316.907,23.541 316.022,23.009 314.85,23.009 L313.232,23.009 L313.232,35.662 L314.771,35.662 C316.022,35.662 316.94,35.116 317.525,34.025 C318.111,32.932 318.404,31.343 318.404,29.257 L318.404,29.257 Z" id="Fill-38" fill="#1986C8" sketch:type="MSShapeGroup"></path>
            <path d="M180.06,46.833 C180.06,51.735 178.53,54.187 175.471,54.187 L172.904,54.187 L172.904,39.756 L175.53,39.756 C177.017,39.756 178.144,40.356 178.911,41.558 C179.677,42.758 180.06,44.517 180.06,46.833 L180.06,46.833 Z M179.044,46.893 C179.044,44.86 178.744,43.31 178.145,42.243 C177.547,41.177 176.662,40.645 175.49,40.645 L173.872,40.645 L173.872,53.298 L175.411,53.298 C176.662,53.298 177.58,52.752 178.165,51.66 C178.751,50.568 179.044,48.979 179.044,46.893 L179.044,46.893 Z" id="Fill-39" fill="#1986C8" sketch:type="MSShapeGroup"></path>
            <path d="M187.957,54.187 L182.726,54.187 L182.726,39.756 L187.957,39.756 L187.957,40.684 L183.693,40.684 L183.693,46.162 L187.721,46.162 L187.721,47.09 L183.693,47.09 L183.693,53.259 L187.957,53.259 L187.957,54.187" id="Fill-40" fill="#1986C8" sketch:type="MSShapeGroup"></path>
            <path d="M198.381,40.457 C197.295,40.457 196.431,41.031 195.789,42.179 C195.147,43.327 194.827,44.918 194.827,46.951 C194.827,48.275 194.975,49.426 195.271,50.406 C195.567,51.387 195.992,52.14 196.545,52.666 C197.098,53.194 197.739,53.456 198.47,53.456 C199.22,53.456 199.864,53.322 200.404,53.052 L200.404,53.939 C199.891,54.237 199.216,54.384 198.381,54.384 C197.466,54.384 196.664,54.088 195.977,53.495 C195.289,52.903 194.758,52.046 194.383,50.925 C194.008,49.803 193.82,48.472 193.82,46.932 C193.82,44.629 194.229,42.82 195.049,41.503 C195.868,40.187 196.985,39.53 198.4,39.53 C199.282,39.53 200.052,39.732 200.71,40.141 L200.266,40.989 C199.713,40.635 199.084,40.457 198.381,40.457" id="Fill-41" fill="#1986C8" sketch:type="MSShapeGroup"></path>
            <path d="M210.629,46.951 C210.629,49.34 210.272,51.176 209.559,52.459 C208.845,53.742 207.812,54.384 206.464,54.384 C205.101,54.384 204.068,53.737 203.364,52.445 C202.66,51.152 202.309,49.314 202.309,46.932 C202.309,44.444 202.657,42.592 203.354,41.375 C204.052,40.157 205.099,39.549 206.493,39.549 C207.836,39.549 208.86,40.189 209.568,41.469 C210.275,42.748 210.629,44.576 210.629,46.951 L210.629,46.951 Z M203.315,46.951 C203.315,49.097 203.583,50.717 204.12,51.813 C204.656,52.908 205.437,53.456 206.464,53.456 C207.497,53.456 208.281,52.913 208.818,51.827 C209.354,50.742 209.623,49.116 209.623,46.951 C209.623,44.813 209.359,43.199 208.833,42.11 C208.307,41.021 207.526,40.477 206.493,40.477 C205.434,40.477 204.64,41.028 204.11,42.13 C203.58,43.233 203.315,44.839 203.315,46.951 L203.315,46.951 Z" id="Fill-42" fill="#1986C8" sketch:type="MSShapeGroup"></path>
            <path d="M213.304,54.187 L213.304,39.756 L214.271,39.756 L214.271,53.259 L218.338,53.259 L218.338,54.187 L213.304,54.187" id="Fill-43" fill="#1986C8" sketch:type="MSShapeGroup"></path>
            <path d="M228.158,46.951 C228.158,49.34 227.802,51.176 227.088,52.459 C226.374,53.742 225.342,54.384 223.993,54.384 C222.631,54.384 221.598,53.737 220.894,52.445 C220.189,51.152 219.838,49.314 219.838,46.932 C219.838,44.444 220.186,42.592 220.884,41.375 C221.581,40.157 222.628,39.549 224.022,39.549 C225.365,39.549 226.39,40.189 227.098,41.469 C227.805,42.748 228.158,44.576 228.158,46.951 L228.158,46.951 Z M220.845,46.951 C220.845,49.097 221.112,50.717 221.649,51.813 C222.186,52.908 222.967,53.456 223.993,53.456 C225.026,53.456 225.81,52.913 226.348,51.827 C226.884,50.742 227.152,49.116 227.152,46.951 C227.152,44.813 226.889,43.199 226.362,42.11 C225.836,41.021 225.056,40.477 224.022,40.477 C222.963,40.477 222.169,41.028 221.64,42.13 C221.109,43.233 220.845,44.839 220.845,46.951 L220.845,46.951 Z" id="Fill-44" fill="#1986C8" sketch:type="MSShapeGroup"></path>
            <path d="M235.581,54.187 L231.741,41.049 L231.662,41.049 C231.728,42.431 231.761,43.306 231.761,43.675 L231.761,54.187 L230.833,54.187 L230.833,39.756 L232.265,39.756 L235.502,50.791 C235.791,51.765 235.978,52.594 236.064,53.278 L236.143,53.278 C236.209,52.792 236.413,51.969 236.756,50.81 L239.964,39.756 L241.444,39.756 L241.444,54.187 L240.477,54.187 L240.477,43.753 C240.477,43.346 240.51,42.45 240.575,41.068 L240.496,41.068 L236.677,54.187 L235.581,54.187" id="Fill-45" fill="#1986C8" sketch:type="MSShapeGroup"></path>
            <path d="M244.602,39.756 L247.366,39.756 C248.498,39.756 249.368,40.046 249.977,40.624 C250.586,41.203 250.891,42.059 250.891,43.19 C250.891,45.146 250.176,46.264 248.748,46.547 L248.748,46.626 C249.571,46.797 250.183,47.164 250.584,47.727 C250.985,48.289 251.186,49.073 251.186,50.08 C251.186,51.37 250.9,52.377 250.327,53.101 C249.755,53.825 248.952,54.187 247.919,54.187 L244.602,54.187 L244.602,39.756 L244.602,39.756 Z M245.57,46.182 L247.386,46.182 C248.288,46.182 248.931,45.934 249.315,45.437 C249.701,44.939 249.893,44.185 249.893,43.171 C249.893,42.356 249.681,41.73 249.257,41.296 C248.832,40.861 248.202,40.645 247.366,40.645 L245.57,40.645 L245.57,46.182 L245.57,46.182 Z M245.57,47.07 L245.57,53.298 L247.791,53.298 C249.383,53.298 250.18,52.219 250.18,50.06 C250.18,49.1 249.946,48.361 249.478,47.845 C249.012,47.328 248.356,47.07 247.515,47.07 L245.57,47.07 L245.57,47.07 Z" id="Fill-46" fill="#1986C8" sketch:type="MSShapeGroup"></path>
            <path d="M253.555,39.756 L254.523,39.756 L254.523,54.187 L253.555,54.187 L253.555,39.756 Z" id="Fill-47" fill="#1986C8" sketch:type="MSShapeGroup"></path>
            <path d="M263.14,54.187 L261.866,48.955 L258.362,48.955 L257.108,54.187 L256.101,54.187 L259.576,39.756 L260.573,39.756 L264.126,54.187 L263.14,54.187 L263.14,54.187 Z M261.639,47.978 L260.365,42.599 C260.234,41.993 260.132,41.421 260.059,40.881 C260,41.453 259.908,42.027 259.783,42.599 L258.55,47.978 L261.639,47.978 L261.639,47.978 Z" id="Fill-48" fill="#1986C8" sketch:type="MSShapeGroup"></path>
            <path d="M91.878,12.56 C89.963,11.567 86.623,10.216 82.15,10.216 C76.611,10.216 74.125,13.2 74.125,16.252 C74.125,20.157 76.824,21.934 83.499,24.987 C92.236,28.893 96.143,33.937 96.143,41.111 C96.143,50.627 88.968,57.586 76.255,57.586 C70.855,57.586 65.388,56.097 62.831,54.532 L64.891,45.724 C67.733,47.432 72.278,48.78 76.683,48.78 C82.506,48.78 85.56,46.011 85.56,41.963 C85.56,38.057 82.933,35.714 76.894,33.087 C68.657,29.534 63.541,24.42 63.541,17.318 C63.541,8.369 70.574,1.48 82.365,1.48 C87.547,1.48 91.525,2.688 94.081,3.966 L91.878,12.56" id="Fill-49" fill="#1986C8" sketch:type="MSShapeGroup"></path>
            <path d="M105.227,12.132 C101.89,12.132 99.617,9.72 99.617,6.522 C99.617,3.255 101.959,0.911 105.227,0.911 C108.636,0.911 110.908,3.255 110.908,6.522 C110.908,9.931 108.494,12.132 105.227,12.132 L105.227,12.132 Z M100.044,17.318 L110.555,17.318 L110.555,56.876 L100.044,56.876 L100.044,17.318 Z" id="Fill-50" fill="#1986C8" sketch:type="MSShapeGroup"></path>
            <path d="M142.51,27.687 C148.619,29.25 153.165,34.077 153.165,41.04 C153.165,45.301 151.391,49.418 148.192,52.262 C144.499,55.6 138.391,57.374 128.662,57.374 C123.48,57.374 119.572,57.02 117.015,56.666 L117.015,2.974 C120.14,2.334 125.536,1.837 130.864,1.837 C137.469,1.837 142.154,2.688 145.92,5.315 C149.188,7.517 151.248,11.14 151.248,15.612 C151.248,20.585 148.335,25.201 142.51,27.403 L142.51,27.687 L142.51,27.687 Z M131.288,24.49 C137.256,24.49 140.805,21.294 140.805,16.82 C140.805,11.423 136.758,9.648 132.072,9.648 C129.798,9.648 128.379,9.79 127.454,10.001 L127.454,24.49 L131.288,24.49 L131.288,24.49 Z M127.454,49.206 C128.519,49.418 129.798,49.49 131.644,49.49 C137.326,49.49 142.154,46.935 142.154,40.756 C142.154,34.434 136.758,32.161 131.36,32.161 L127.454,32.161 L127.454,49.206 L127.454,49.206 Z" id="Fill-51" fill="#1986C8" sketch:type="MSShapeGroup"></path>
            <path d="M4.665,13.788 C17.201,7.421 32.142,4.517 46.149,5.765 C52.338,18.161 55.206,32.945 53.556,46.737 C41.461,53.243 26.814,56.09 13.16,54.634 C6.472,42.431 3.591,27.627 4.665,13.788" id="Fill-52" fill="#F0854D" sketch:type="MSShapeGroup"></path>
            <path d="M0.646,22.682 C10.427,12.581 23.606,4.971 37.257,1.591 C47.143,11.297 54.672,24.341 57.6,37.919 C48.283,48.007 35.361,55.469 21.977,58.535 C11.679,49.177 4.136,36.117 0.646,22.682" id="Fill-53" fill="#FFD932" sketch:type="MSShapeGroup"></path>
            <g id="Group-56" transform="translate(0.000000, 1.000000)">
                <mask id="mask-2" sketch:name="Clip 55" fill="white">
                    <use xlink:href="#path-1"></use>
                </mask>
                <g id="Clip-55"></g>
                <path d="M4.665,12.788 C17.201,6.421 32.142,3.517 46.149,4.765 C52.338,17.161 55.206,31.945 53.556,45.737 C41.461,52.243 26.814,55.09 13.16,53.634 C6.472,41.431 3.591,26.627 4.665,12.788" id="Fill-54" fill="#F9B300" sketch:type="MSShapeGroup" mask="url(#mask-2)"></path>
            </g>
            <path d="M0.105,34.902 C4.934,21.697 13.878,9.383 24.972,0.742 C37.953,5.589 50.137,14.444 58.335,25.657 C53.925,38.663 45.156,50.735 34.176,58.98 C20.962,54.619 8.758,45.754 0.105,34.902" id="Fill-57" fill="#BAE2F6" sketch:type="MSShapeGroup"></path>
            <g id="Group-61">
                <mask id="mask-4" sketch:name="Clip 59" fill="white">
                    <use xlink:href="#path-3"></use>
                </mask>
                <g id="Clip-59"></g>
                <path d="M4.665,13.788 C17.201,7.421 32.142,4.517 46.149,5.765 C52.338,18.161 55.206,32.945 53.556,46.737 C41.461,53.243 26.814,56.09 13.16,54.634 C6.472,42.431 3.591,27.627 4.665,13.788" id="Fill-58" fill="#D7A889" sketch:type="MSShapeGroup" mask="url(#mask-4)"></path>
                <path d="M0.646,22.682 C10.427,12.581 23.606,4.971 37.257,1.591 C47.143,11.297 54.672,24.341 57.6,37.919 C48.283,48.007 35.361,55.469 21.977,58.535 C11.679,49.177 4.136,36.117 0.646,22.682" id="Fill-60" fill="#AFC975" sketch:type="MSShapeGroup" mask="url(#mask-4)"></path>
            </g>
            <g id="Group-64" transform="translate(2.000000, 3.000000)">
                <mask id="mask-6" sketch:name="Clip 63" fill="white">
                    <use xlink:href="#path-5"></use>
                </mask>
                <g id="Clip-63"></g>
                <path d="M2.665,10.788 C15.201,4.421 30.142,1.517 44.149,2.765 C50.338,15.161 53.206,29.945 51.556,43.737 C39.461,50.243 24.814,53.09 11.16,51.634 C4.472,39.431 1.591,24.627 2.665,10.788" id="Fill-62" fill="#AFB655" sketch:type="MSShapeGroup" mask="url(#mask-6)"></path>
            </g>
            <path d="M5.091,34.453 C5.091,25.86 12.057,18.895 20.649,18.895 C29.241,18.895 36.206,25.86 36.206,34.453 C36.206,43.042 29.241,50.009 20.649,50.009 C12.057,50.009 5.091,43.042 5.091,34.453" id="Fill-65" fill="#FFFFFF" sketch:type="MSShapeGroup"></path>
            <path id="Fill-66" fill="#FFFFFF" sketch:type="MSShapeGroup"></path>
            <path d="M12.87,34.453 C12.87,30.155 16.354,26.672 20.649,26.672 C24.945,26.672 28.428,30.155 28.428,34.453 C28.428,38.747 24.945,42.23 20.649,42.23 C16.354,42.23 12.87,38.747 12.87,34.453" id="Fill-67" fill="#1986C8" sketch:type="MSShapeGroup"></path>
            <path id="Fill-68" fill="#1986C8" sketch:type="MSShapeGroup"></path>
            <path d="M39.854,6.477 C39.854,3.095 42.595,0.354 45.977,0.354 C49.357,0.354 52.098,3.095 52.098,6.477 C52.098,9.859 49.357,12.6 45.977,12.6 C42.595,12.6 39.854,9.859 39.854,6.477" id="Fill-69" fill="#FFFFFF" sketch:type="MSShapeGroup"></path>
            <path id="Fill-70" fill="#FFFFFF" sketch:type="MSShapeGroup"></path>
            <path d="M42.916,6.477 C42.916,4.786 44.286,3.416 45.977,3.416 C47.667,3.416 49.037,4.786 49.037,6.477 C49.037,8.168 47.667,9.537 45.977,9.537 C44.286,9.537 42.916,8.168 42.916,6.477" id="Fill-71" fill="#1986C8" sketch:type="MSShapeGroup"></path>
            <path id="Fill-72" fill="#1986C8" sketch:type="MSShapeGroup"></path>
            <path d="M51.231,42.8 C51.231,40.923 52.752,39.4 54.631,39.4 C56.507,39.4 58.029,40.923 58.029,42.8 C58.029,44.675 56.507,46.197 54.631,46.197 C52.752,46.197 51.231,44.675 51.231,42.8" id="Fill-73" fill="#FFFFFF" sketch:type="MSShapeGroup"></path>
            <path id="Fill-74" fill="#FFFFFF" sketch:type="MSShapeGroup"></path>
            <path d="M52.931,42.8 C52.931,41.862 53.691,41.099 54.631,41.099 C55.569,41.099 56.33,41.862 56.33,42.8 C56.33,43.738 55.569,44.499 54.631,44.499 C53.691,44.499 52.931,43.738 52.931,42.8" id="Fill-75" fill="#1986C8" sketch:type="MSShapeGroup"></path>
            <path id="Fill-76" fill="#1986C8" sketch:type="MSShapeGroup"></path>
            <path d="M32.159,44.896 C32.159,44.896 36.241,39.531 42.351,40.446 C42.601,40.483 47.221,40.689 50.734,43.613 C50.822,43.685 51.307,43.999 51.853,44.772 C51.853,44.792 52.82,39.931 52.82,39.931 C52.82,39.931 50.586,41.432 46.135,40.269 C45.904,40.208 37.538,39.476 35.579,30.065 C35.547,29.908 32.159,44.896 32.159,44.896" id="Fill-77" fill="#FFFFFF" sketch:type="MSShapeGroup"></path>
        </g>
    </g>
</svg>