<?xml version="1.0" encoding="UTF-8" standalone="no"?>
<svg width="183px" height="71px" viewBox="0 0 183 71" version="1.1" xmlns="http://www.w3.org/2000/svg" xmlns:xlink="http://www.w3.org/1999/xlink" xmlns:sketch="http://www.bohemiancoding.com/sketch/ns">
    <!-- Generator: Sketch 3.3.2 (12043) - http://www.bohemiancoding.com/sketch -->
    <title>Imported Layers</title>
    <desc>Created with Sketch.</desc>
    <defs>
        <path id="path-1" d="M0.061,25.394 C11.707,13.366 27.401,4.304 43.656,0.279 C55.43,11.838 64.395,27.371 67.882,43.54 C56.786,55.552 41.399,64.438 25.461,68.089 C13.197,56.945 4.215,41.392 0.061,25.394"></path>
        <path id="path-3" d="M0.416,40.946 C6.165,25.222 16.816,10.559 30.027,0.27 C45.485,6.041 59.993,16.585 69.756,29.937 C64.505,45.426 54.063,59.801 40.987,69.62 C25.252,64.426 10.719,53.87 0.416,40.946"></path>
        <path id="path-5" d="M12.8988206,11.0811737 C19.585194,6.62560836 26.8737136,2.99993946 34.401777,0.419523983 C41.281826,3.73601639 47.8358514,7.9834073 53.7015735,12.9741133 C58.0255618,19.5574384 61.5157404,26.731375 63.9001366,34.1557785 C60.7034845,41.2092826 56.4554453,47.8992166 51.4190944,53.8714525 C45.1017,58.1174221 38.1892986,61.5433019 31.0376496,63.948478 C23.8466698,60.7888453 17.0205225,56.5446809 10.8730173,51.5262707 C6.50294452,45.1218182 2.95028354,38.1084806 0.364781427,30.8702148 C3.66093012,23.8378792 7.91436852,17.1348353 12.8988206,11.0811737"></path>
    </defs>
    <g id="Page-1" stroke="none" stroke-width="1" fill="none" fill-rule="evenodd" sketch:type="MSPage">
        <g id="Imported-Layers" sketch:type="MSLayerGroup">
            <path d="M109.699,15.341 C107.419,14.158 103.442,12.551 98.115,12.551 C91.52,12.551 88.559,16.102 88.559,19.739 C88.559,24.389 91.774,26.504 99.722,30.141 C110.126,34.791 114.778,40.797 114.778,49.34 C114.778,60.672 106.234,68.96 91.096,68.96 C84.666,68.96 78.154,67.185 75.11,65.322 L77.563,54.834 C80.948,56.867 86.36,58.473 91.605,58.473 C98.539,58.473 102.176,55.176 102.176,50.355 C102.176,45.703 99.047,42.913 91.857,39.784 C82.048,35.555 75.956,29.465 75.956,21.007 C75.956,10.351 84.331,2.146 98.371,2.146 C104.542,2.146 109.28,3.585 112.323,5.107 L109.699,15.341" id="Fill-1" fill="#1986C8" sketch:type="MSShapeGroup"></path>
            <path d="M125.595,14.832 C121.621,14.832 118.915,11.959 118.915,8.153 C118.915,4.262 121.704,1.47 125.595,1.47 C129.655,1.47 132.36,4.262 132.36,8.153 C132.36,12.211 129.486,14.832 125.595,14.832 L125.595,14.832 Z M119.424,21.007 L131.94,21.007 L131.94,68.114 L119.424,68.114 L119.424,21.007 Z" id="Fill-2" fill="#1986C8" sketch:type="MSShapeGroup"></path>
            <path d="M169.992,33.355 C177.268,35.216 182.681,40.965 182.681,49.256 C182.681,54.331 180.567,59.232 176.759,62.619 C172.361,66.593 165.087,68.707 153.503,68.707 C147.332,68.707 142.679,68.285 139.633,67.862 L139.633,3.925 C143.354,3.163 149.78,2.571 156.125,2.571 C163.989,2.571 169.569,3.585 174.053,6.715 C177.945,9.336 180.398,13.65 180.398,18.977 C180.398,24.897 176.929,30.394 169.992,33.017 L169.992,33.355 L169.992,33.355 Z M156.63,29.549 C163.735,29.549 167.962,25.743 167.962,20.415 C167.962,13.988 163.143,11.873 157.564,11.873 C154.855,11.873 153.165,12.043 152.063,12.295 L152.063,29.549 L156.63,29.549 L156.63,29.549 Z M152.063,58.981 C153.333,59.232 154.855,59.319 157.053,59.319 C163.82,59.319 169.569,56.274 169.569,48.918 C169.569,41.389 163.143,38.684 156.716,38.684 L152.063,38.684 L152.063,58.981 L152.063,58.981 Z" id="Fill-3" fill="#1986C8" sketch:type="MSShapeGroup"></path>
            <path d="M5.846,16.804 C20.774,9.223 38.565,5.763 55.245,7.25 C62.614,22.011 66.03,39.617 64.065,56.04 C49.662,63.786 32.221,67.177 15.962,65.443 C7.997,50.913 4.567,33.282 5.846,16.804" id="Fill-4" fill="#F0854D" sketch:type="MSShapeGroup"></path>
            <path d="M1.061,27.394 C12.707,15.366 28.401,6.304 44.656,2.279 C56.43,13.838 65.395,29.371 68.882,45.54 C57.786,57.552 42.399,66.438 26.461,70.089 C14.197,58.945 5.215,43.392 1.061,27.394" id="Fill-5" fill="#FFD932" sketch:type="MSShapeGroup"></path>
            <g id="Group-8" transform="translate(1.000000, 2.000000)">
                <mask id="mask-2" sketch:name="Clip 7" fill="white">
                    <use xlink:href="#path-1"></use>
                </mask>
                <g id="Clip-7"></g>
                <path d="M4.846,14.804 C19.774,7.223 37.565,3.763 54.245,5.25 C61.614,20.011 65.03,37.617 63.065,54.04 C48.662,61.786 31.221,65.177 14.962,63.443 C6.997,48.913 3.567,31.282 4.846,14.804" id="Fill-6" fill="#F9B300" sketch:type="MSShapeGroup" mask="url(#mask-2)"></path>
            </g>
            <path d="M0.416,41.946 C6.165,26.222 16.816,11.559 30.027,1.27 C45.485,7.041 59.993,17.585 69.756,30.937 C64.505,46.426 54.063,60.801 40.987,70.62 C25.252,65.426 10.719,54.87 0.416,41.946" id="Fill-9" fill="#BAE2F6" sketch:type="MSShapeGroup"></path>
            <g id="Group-13" transform="translate(0.000000, 1.000000)">
                <mask id="mask-4" sketch:name="Clip 11" fill="white">
                    <use xlink:href="#path-3"></use>
                </mask>
                <g id="Clip-11"></g>
                <path d="M5.846,15.804 C20.774,8.223 38.565,4.763 55.245,6.25 C62.614,21.011 66.03,38.617 64.065,55.04 C49.662,62.786 32.221,66.177 15.962,64.443 C7.997,49.913 4.567,32.282 5.846,15.804" id="Fill-10" fill="#D7A889" sketch:type="MSShapeGroup" mask="url(#mask-4)"></path>
                <path d="M1.061,26.394 C12.707,14.366 28.401,5.304 44.656,1.279 C56.43,12.838 65.395,28.371 68.882,44.54 C57.786,56.552 42.399,65.438 26.461,69.089 C14.197,57.945 5.215,42.392 1.061,26.394" id="Fill-12" fill="#AFC975" sketch:type="MSShapeGroup" mask="url(#mask-4)"></path>
            </g>
            <g id="Group-16" transform="translate(3.000000, 4.000000)">
                <mask id="mask-6" sketch:name="Clip 15" fill="white">
                    <use xlink:href="#path-5"></use>
                </mask>
                <g id="Clip-15"></g>
                <path d="M2.846,12.804 C17.774,5.223 35.565,1.763 52.245,3.25 C59.614,18.011 63.03,35.617 61.065,52.04 C46.662,59.786 29.221,63.177 12.962,61.443 C4.997,46.913 1.567,29.282 2.846,12.804" id="Fill-14" fill="#AFB655" sketch:type="MSShapeGroup" mask="url(#mask-6)"></path>
            </g>
            <path d="M6.352,41.411 C6.352,31.179 14.647,22.884 24.88,22.884 C35.111,22.884 43.405,31.179 43.405,41.411 C43.405,51.641 35.111,59.935 24.88,59.935 C14.647,59.935 6.352,51.641 6.352,41.411" id="Fill-17" fill="#FFFFFF" sketch:type="MSShapeGroup"></path>
            <path id="Fill-18" fill="#FFFFFF" sketch:type="MSShapeGroup"></path>
            <path d="M15.616,41.411 C15.616,36.295 19.764,32.146 24.88,32.146 C29.996,32.146 34.143,36.295 34.143,41.411 C34.143,46.525 29.996,50.672 24.88,50.672 C19.764,50.672 15.616,46.525 15.616,41.411" id="Fill-19" fill="#1986C8" sketch:type="MSShapeGroup"></path>
            <path id="Fill-20" fill="#1986C8" sketch:type="MSShapeGroup"></path>
            <path d="M47.749,8.098 C47.749,4.07 51.013,0.807 55.04,0.807 C59.066,0.807 62.328,4.07 62.328,8.098 C62.328,12.124 59.066,15.388 55.04,15.388 C51.013,15.388 47.749,12.124 47.749,8.098" id="Fill-21" fill="#FFFFFF" sketch:type="MSShapeGroup"></path>
            <path id="Fill-22" fill="#FFFFFF" sketch:type="MSShapeGroup"></path>
            <path d="M51.395,8.098 C51.395,6.083 53.026,4.452 55.04,4.452 C57.053,4.452 58.684,6.083 58.684,8.098 C58.684,10.111 57.053,11.742 55.04,11.742 C53.026,11.742 51.395,10.111 51.395,8.098" id="Fill-23" fill="#1986C8" sketch:type="MSShapeGroup"></path>
            <path id="Fill-24" fill="#1986C8" sketch:type="MSShapeGroup"></path>
            <path d="M61.297,51.352 C61.297,49.116 63.109,47.303 65.345,47.303 C67.579,47.303 69.393,49.116 69.393,51.352 C69.393,53.585 67.579,55.397 65.345,55.397 C63.109,55.397 61.297,53.585 61.297,51.352" id="Fill-25" fill="#FFFFFF" sketch:type="MSShapeGroup"></path>
            <path id="Fill-26" fill="#FFFFFF" sketch:type="MSShapeGroup"></path>
            <path d="M63.32,51.352 C63.32,50.233 64.227,49.326 65.345,49.326 C66.463,49.326 67.369,50.233 67.369,51.352 C67.369,52.468 66.463,53.375 65.345,53.375 C64.227,53.375 63.32,52.468 63.32,51.352" id="Fill-27" fill="#1986C8" sketch:type="MSShapeGroup"></path>
            <path id="Fill-28" fill="#1986C8" sketch:type="MSShapeGroup"></path>
            <path d="M38.586,53.847 C38.586,53.847 43.446,47.459 50.722,48.549 C51.02,48.594 56.522,48.838 60.705,52.32 C60.81,52.406 61.387,52.779 62.037,53.7 C62.037,53.725 63.19,47.935 63.19,47.935 C63.19,47.935 60.528,49.723 55.228,48.337 C54.953,48.265 44.991,47.392 42.658,36.187 C42.62,36 38.586,53.847 38.586,53.847" id="Fill-29" fill="#FFFFFF" sketch:type="MSShapeGroup"></path>
        </g>
    </g>
</svg>