<?xml version="1.0" encoding="UTF-8" standalone="no"?>
<svg width="95px" height="95px" viewBox="0 0 95 95" version="1.1" xmlns="http://www.w3.org/2000/svg" xmlns:xlink="http://www.w3.org/1999/xlink" xmlns:sketch="http://www.bohemiancoding.com/sketch/ns">
    <!-- Generator: Sketch 3.3.2 (12043) - http://www.bohemiancoding.com/sketch -->
    <title>Imported Layers</title>
    <desc>Created with Sketch.</desc>
    <defs></defs>
    <g id="Page-1" stroke="none" stroke-width="1" fill="none" fill-rule="evenodd" sketch:type="MSPage">
        <g id="Imported-Layers" sketch:type="MSLayerGroup">
            <path d="M94.715,47.554 C94.715,21.495 73.591,0.37 47.531,0.37 C21.472,0.37 0.346,21.495 0.346,47.554 C0.346,73.613 21.472,94.738 47.531,94.738 C73.591,94.738 94.715,73.613 94.715,47.554" id="Fill-1" fill="#0068B2" sketch:type="MSShapeGroup"></path>
            <path d="M59.079,38.81 L59.079,46.23 C56.835,46.729 54.571,46.186 52.196,46.6 C52.078,49.14 52.159,51.634 52.143,54.123 C52.132,56.675 52.143,59.225 52.145,61.776 L52.145,69.208 C51.11,69.679 44.322,69.8 42.472,69.401 C42.421,68.877 42.324,68.296 42.324,67.717 C42.315,61.233 42.323,54.747 42.317,48.262 C42.317,47.711 42.264,47.16 42.225,46.407 L35.942,46.407 C35.854,43.821 35.834,41.438 35.936,38.864 L42.151,38.864 C42.214,38.225 42.293,37.765 42.3,37.304 C42.324,36.051 42.272,34.797 42.341,33.545 C42.567,29.17 46.273,25.579 50.658,25.493 C53.036,25.449 55.414,25.475 57.792,25.482 C58.169,25.486 58.545,25.563 59.109,25.625 C59.232,28.041 59.207,30.38 59.122,32.913 C57.824,32.938 56.674,32.953 55.526,32.986 C53.979,33.031 52.87,33.806 52.379,35.229 C52.243,35.63 52.191,36.071 52.173,36.498 C52.138,37.216 52.162,37.94 52.162,38.81 L59.079,38.81" id="Fill-2" fill="#FFFFFF" sketch:type="MSShapeGroup"></path>
        </g>
    </g>
</svg>