<?xml version="1.0" encoding="UTF-8" standalone="no"?>
<svg width="94px" height="94px" viewBox="0 0 94 94" version="1.1" xmlns="http://www.w3.org/2000/svg" xmlns:xlink="http://www.w3.org/1999/xlink" xmlns:sketch="http://www.bohemiancoding.com/sketch/ns">
    <!-- Generator: Sketch 3.3.2 (12043) - http://www.bohemiancoding.com/sketch -->
    <title>Imported Layers</title>
    <desc>Created with Sketch.</desc>
    <defs></defs>
    <g id="Page-1" stroke="none" stroke-width="1" fill="none" fill-rule="evenodd" sketch:type="MSPage">
        <path d="M27.8857049,89.3926874 C8.21370494,81.1716874 -5.57429506,57.5356874 2.20870494,32.6896874 C10.1357049,7.37468739 37.5177049,-6.41831261 62.9067049,2.94268739 C88.1637049,12.2546874 100.170705,40.4136874 89.7257049,64.9156874 C78.9357049,90.2276874 52.2967049,97.4796874 33.7347049,91.5286874 C34.8497049,89.3016874 36.2017049,87.1466874 37.0387049,84.8036874 C38.2367049,81.4516874 39.0807049,77.9696874 40.0387049,74.5336874 C40.5497049,72.6976874 40.9827049,70.8396874 41.4457049,69.0026874 C45.9897049,74.6116874 51.8977049,75.4686874 58.4037049,73.9086874 C65.1557049,72.2916874 69.9407049,68.0346874 73.3587049,62.1336874 C75.9437049,57.6696874 77.3057049,52.8126874 77.8717049,47.7126874 C78.2807049,44.0096874 78.3947049,40.3156874 77.4557049,36.6646874 C75.4477049,28.8606874 70.7577049,23.1596874 63.7407049,19.3376874 C58.8757049,16.6856874 53.6037049,15.6226874 48.0927049,15.6776874 C42.5327049,15.7346874 37.1467049,16.7016874 32.1327049,19.1856874 C23.2297049,23.5936874 17.4537049,30.5696874 15.5297049,40.3966874 C14.4187049,46.0856874 15.0547049,51.6606874 17.9417049,56.8196874 C19.4267049,59.4716874 21.5667049,61.4606874 24.3777049,62.6876874 C25.8587049,63.3326874 26.7467049,62.8906874 27.1437049,61.3106874 C27.4597049,60.0566874 27.7607049,58.7966874 28.0967049,57.5476874 C28.2797049,56.8626874 28.1677049,56.2406874 27.7197049,55.7226874 C23.5507049,50.9116874 23.5397049,45.3336874 25.2027049,39.7216874 C27.8667049,30.7336874 34.1057049,25.5506874 43.3277049,24.0496874 C48.0767049,23.2766874 52.7617049,23.6886874 57.1617049,25.7776874 C62.7207049,28.4216874 65.8427049,32.9416874 66.4517049,39.0046874 C67.1247049,45.7076874 66.0477049,52.1846874 63.0127049,58.2536874 C61.6867049,60.9086874 59.9097049,63.2386874 57.3337049,64.8146874 C54.5467049,66.5186874 51.5837049,67.0446874 48.5017049,65.7006874 C45.3117049,64.3086874 43.6477049,61.0026874 44.5227049,57.6336874 C45.4517049,54.0536874 46.5667049,50.5216874 47.5747049,46.9626874 C48.1697049,44.8656874 48.7237049,42.7576874 48.6377049,40.5496874 C48.5397049,37.9046874 47.7067049,35.6026874 45.1437049,34.4246874 C42.5267049,33.2226874 40.0047049,33.7086874 37.7587049,35.4236874 C35.2067049,37.3716874 33.9857049,40.1166874 33.4917049,43.1996874 C32.9617049,46.5166874 33.3327049,49.7566874 34.5407049,52.9016874 C34.6587049,53.2096874 34.6697049,53.6096874 34.5947049,53.9356874 C32.6067049,62.4546874 30.5827049,70.9676874 28.6067049,79.4906874 C27.9187049,82.4616874 27.8337049,85.4986874 27.8837049,88.5376874 C27.8887049,88.8126874 27.8857049,89.0876874 27.8857049,89.3926874" id="Imported-Layers" fill="#CB1F27" sketch:type="MSShapeGroup"></path>
    </g>
</svg>