<?xml version="1.0" encoding="UTF-8" standalone="no"?>
<svg width="140px" height="95px" viewBox="0 0 140 95" version="1.1" xmlns="http://www.w3.org/2000/svg" xmlns:xlink="http://www.w3.org/1999/xlink" xmlns:sketch="http://www.bohemiancoding.com/sketch/ns">
    <!-- Generator: Sketch 3.3.2 (12043) - http://www.bohemiancoding.com/sketch -->
    <title>Imported Layers</title>
    <desc>Created with Sketch.</desc>
    <defs></defs>
    <g id="Page-1" stroke="none" stroke-width="1" fill="none" fill-rule="evenodd" sketch:type="MSPage">
        <g id="Imported-Layers" sketch:type="MSLayerGroup">
            <path d="M113.653,47.213 C113.653,21.153 92.527,0.027 66.469,0.027 C40.409,0.027 19.285,21.153 19.285,47.213 C19.285,73.273 40.409,94.397 66.469,94.397 C92.527,94.397 113.653,73.273 113.653,47.213" id="Fill-1" fill="#FFDA5C" sketch:type="MSShapeGroup"></path>
            <path d="M37,28 L96,28 L96,67 L37,67 L37,28 Z" id="Fill-2" fill="#FFFFFF" sketch:type="MSShapeGroup"></path>
            <path d="M37,28 L96,28 L96,67 L37,67 L37,28 Z" id="Stroke-3" stroke="#FFDA5C" stroke-width="4" sketch:type="MSShapeGroup"></path>
            <path d="M95.831,61.769 L66.469,42.664 L37.107,61.769" id="Fill-4" fill="#FFFFFF" sketch:type="MSShapeGroup"></path>
            <path d="M95.831,61.769 L66.469,42.664 L37.107,61.769" id="Stroke-5" stroke="#FFDA5C" stroke-width="3.599" sketch:type="MSShapeGroup"></path>
            <path d="M37.107,33.565 L66.469,52.673 L95.831,33.565" id="Fill-6" fill="#FFFFFF" sketch:type="MSShapeGroup"></path>
            <path d="M37.107,33.565 L66.469,52.673 L95.831,33.565" id="Stroke-7" stroke="#FFDA5C" stroke-width="3.599" sketch:type="MSShapeGroup"></path>
            <path d="M0.06,8 L140,8 L140,90 L0.06,90 L0.06,8 Z" id="Fill-8" fill="#FFDA5C" sketch:type="MSShapeGroup"></path>
            <path d="M23.652,33.033 C23.652,34.038 23.288,34.822 22.559,35.385 C21.829,35.947 20.84,36.229 19.59,36.229 C18.235,36.229 17.194,36.054 16.465,35.705 L16.465,34.424 C16.934,34.622 17.444,34.778 17.996,34.893 C18.548,35.007 19.095,35.064 19.637,35.064 C20.522,35.064 21.188,34.896 21.637,34.56 C22.085,34.225 22.309,33.757 22.309,33.158 C22.309,32.763 22.229,32.438 22.07,32.186 C21.911,31.932 21.645,31.7 21.273,31.486 C20.901,31.272 20.335,31.03 19.574,30.76 C18.512,30.38 17.753,29.929 17.297,29.408 C16.841,28.887 16.613,28.208 16.613,27.369 C16.613,26.489 16.944,25.788 17.605,25.267 C18.266,24.747 19.141,24.486 20.23,24.486 C21.366,24.486 22.41,24.694 23.363,25.111 L22.949,26.268 C22.007,25.872 21.09,25.674 20.199,25.674 C19.496,25.674 18.946,25.825 18.551,26.127 C18.155,26.428 17.957,26.848 17.957,27.385 C17.957,27.78 18.03,28.104 18.176,28.357 C18.321,28.61 18.567,28.842 18.914,29.052 C19.261,29.263 19.79,29.497 20.504,29.752 C21.702,30.178 22.526,30.637 22.976,31.127 C23.427,31.616 23.652,32.252 23.652,33.033" id="Fill-9" fill="#4D4D4D" sketch:type="MSShapeGroup"></path>
            <path d="M34.613,24.65 L34.613,32.041 C34.613,33.342 34.22,34.366 33.434,35.111 C32.647,35.856 31.566,36.229 30.191,36.229 C28.816,36.229 27.753,35.854 27,35.104 C26.247,34.354 25.871,33.322 25.871,32.01 L25.871,24.65 L27.199,24.65 L27.199,32.104 C27.199,33.057 27.46,33.788 27.98,34.299 C28.501,34.809 29.266,35.064 30.277,35.064 C31.241,35.064 31.983,34.807 32.504,34.295 C33.024,33.782 33.285,33.046 33.285,32.088 L33.285,24.65 L34.613,24.65" id="Fill-10" fill="#4D4D4D" sketch:type="MSShapeGroup"></path>
            <path d="M44.082,33.033 C44.082,34.038 43.718,34.822 42.988,35.385 C42.259,35.947 41.269,36.229 40.02,36.229 C38.665,36.229 37.624,36.054 36.894,35.705 L36.894,34.424 C37.363,34.622 37.874,34.778 38.426,34.893 C38.978,35.007 39.524,35.064 40.066,35.064 C40.952,35.064 41.618,34.896 42.066,34.56 C42.514,34.225 42.738,33.757 42.738,33.158 C42.738,32.763 42.659,32.438 42.5,32.186 C42.341,31.932 42.075,31.7 41.703,31.486 C41.331,31.272 40.765,31.03 40.004,30.76 C38.941,30.38 38.183,29.929 37.726,29.408 C37.27,28.887 37.043,28.208 37.043,27.369 C37.043,26.489 37.374,25.788 38.035,25.267 C38.696,24.747 39.571,24.486 40.66,24.486 C41.796,24.486 42.84,24.694 43.793,25.111 L43.379,26.268 C42.436,25.872 41.52,25.674 40.629,25.674 C39.926,25.674 39.376,25.825 38.98,26.127 C38.585,26.428 38.387,26.848 38.387,27.385 C38.387,27.78 38.46,28.104 38.605,28.357 C38.751,28.61 38.997,28.842 39.344,29.052 C39.69,29.263 40.22,29.497 40.934,29.752 C42.132,30.178 42.956,30.637 43.406,31.127 C43.856,31.616 44.082,32.252 44.082,33.033" id="Fill-11" fill="#4D4D4D" sketch:type="MSShapeGroup"></path>
            <path d="M51.308,25.674 C50.054,25.674 49.062,26.092 48.336,26.928 C47.609,27.763 47.246,28.908 47.246,30.361 C47.246,31.856 47.597,33.011 48.297,33.826 C48.997,34.641 49.996,35.049 51.293,35.049 C52.09,35.049 52.999,34.905 54.019,34.619 L54.019,35.783 C53.228,36.08 52.251,36.229 51.09,36.229 C49.407,36.229 48.109,35.718 47.195,34.697 C46.281,33.677 45.824,32.225 45.824,30.346 C45.824,29.169 46.044,28.137 46.484,27.252 C46.925,26.366 47.559,25.685 48.39,25.205 C49.222,24.725 50.199,24.486 51.324,24.486 C52.522,24.486 53.569,24.705 54.465,25.143 L53.902,26.283 C53.038,25.877 52.173,25.674 51.308,25.674" id="Fill-12" fill="#4D4D4D" sketch:type="MSShapeGroup"></path>
            <path d="M57.84,31.322 L57.84,36.072 L56.512,36.072 L56.512,24.65 L59.644,24.65 C61.046,24.65 62.081,24.919 62.75,25.455 C63.419,25.991 63.754,26.799 63.754,27.877 C63.754,29.388 62.988,30.408 61.457,30.939 L64.559,36.072 L62.988,36.072 L60.223,31.322 L57.84,31.322 L57.84,31.322 Z M57.84,30.182 L59.66,30.182 C60.598,30.182 61.285,29.995 61.723,29.623 C62.16,29.251 62.379,28.692 62.379,27.947 C62.379,27.192 62.156,26.647 61.711,26.315 C61.266,25.981 60.551,25.814 59.566,25.814 L57.84,25.814 L57.84,30.182 L57.84,30.182 Z" id="Fill-13" fill="#4D4D4D" sketch:type="MSShapeGroup"></path>
            <path d="M66.23,23.541 C66.48,23.217 66.75,22.827 67.039,22.369 C67.328,21.911 67.556,21.513 67.723,21.174 L69.301,21.174 L69.301,21.338 C69.071,21.677 68.73,22.092 68.277,22.588 C67.824,23.083 67.431,23.465 67.098,23.736 L66.23,23.736 L66.23,23.541 L66.23,23.541 Z M66.402,24.65 L67.73,24.65 L67.73,36.072 L66.402,36.072 L66.402,24.65 Z" id="Fill-14" fill="#4D4D4D" sketch:type="MSShapeGroup"></path>
            <path d="M70.863,24.65 L74.09,24.65 C75.605,24.65 76.702,24.877 77.379,25.33 C78.056,25.783 78.394,26.499 78.394,27.478 C78.394,28.155 78.206,28.714 77.828,29.154 C77.45,29.594 76.899,29.88 76.176,30.01 L76.176,30.088 C77.91,30.385 78.777,31.296 78.777,32.822 C78.777,33.843 78.432,34.64 77.742,35.213 C77.052,35.786 76.087,36.072 74.848,36.072 L70.863,36.072 L70.863,24.65 L70.863,24.65 Z M72.191,29.541 L74.379,29.541 C75.316,29.541 75.991,29.393 76.402,29.099 C76.813,28.805 77.019,28.31 77.019,27.611 C77.019,26.971 76.79,26.509 76.332,26.225 C75.874,25.94 75.144,25.799 74.145,25.799 L72.191,25.799 L72.191,29.541 L72.191,29.541 Z M72.191,30.666 L72.191,34.94 L74.574,34.94 C75.496,34.94 76.19,34.76 76.656,34.404 C77.122,34.047 77.355,33.489 77.355,32.728 C77.355,32.02 77.117,31.499 76.641,31.166 C76.164,30.833 75.438,30.666 74.465,30.666 L72.191,30.666 L72.191,30.666 Z" id="Fill-15" fill="#4D4D4D" sketch:type="MSShapeGroup"></path>
            <path d="M87.598,36.072 L81.23,36.072 L81.23,24.65 L87.598,24.65 L87.598,25.83 L82.559,25.83 L82.559,29.51 L87.293,29.51 L87.293,30.681 L82.559,30.681 L82.559,34.885 L87.598,34.885 L87.598,36.072" id="Fill-16" fill="#4D4D4D" sketch:type="MSShapeGroup"></path>
            <path d="M93.645,36.072 L92.316,36.072 L92.316,25.83 L88.699,25.83 L88.699,24.65 L97.262,24.65 L97.262,25.83 L93.645,25.83 L93.645,36.072" id="Fill-17" fill="#4D4D4D" sketch:type="MSShapeGroup"></path>
            <path d="M105.348,36.072 L98.98,36.072 L98.98,24.65 L105.348,24.65 L105.348,25.83 L100.309,25.83 L100.309,29.51 L105.043,29.51 L105.043,30.681 L100.309,30.681 L100.309,34.885 L105.348,34.885 L105.348,36.072" id="Fill-18" fill="#4D4D4D" sketch:type="MSShapeGroup"></path>
            <path d="M119.215,36.072 L117.793,32.439 L113.215,32.439 L111.809,36.072 L110.465,36.072 L114.98,24.604 L116.098,24.604 L120.59,36.072 L119.215,36.072 L119.215,36.072 Z M117.379,31.244 L116.051,27.705 C115.879,27.257 115.702,26.708 115.519,26.057 C115.405,26.556 115.241,27.106 115.027,27.705 L113.684,31.244 L117.379,31.244 L117.379,31.244 Z" id="Fill-19" fill="#4D4D4D" sketch:type="MSShapeGroup"></path>
            <path d="M21.138,55.072 L19.622,55.072 L13.38,45.486 L13.317,45.486 C13.4,46.611 13.442,47.643 13.442,48.58 L13.442,55.072 L12.216,55.072 L12.216,43.65 L13.716,43.65 L19.942,53.197 L20.005,53.197 C19.994,53.057 19.971,52.604 19.935,51.842 C19.898,51.079 19.885,50.533 19.895,50.205 L19.895,43.65 L21.138,43.65 L21.138,55.072" id="Fill-20" fill="#4D4D4D" sketch:type="MSShapeGroup"></path>
            <path d="M32.903,43.65 L32.903,51.041 C32.903,52.343 32.51,53.366 31.724,54.111 C30.938,54.856 29.856,55.228 28.481,55.228 C27.106,55.228 26.043,54.853 25.29,54.103 C24.537,53.353 24.161,52.322 24.161,51.01 L24.161,43.65 L25.489,43.65 L25.489,51.103 C25.489,52.056 25.75,52.788 26.27,53.299 C26.791,53.81 27.557,54.065 28.567,54.065 C29.531,54.065 30.273,53.808 30.794,53.295 C31.314,52.782 31.575,52.046 31.575,51.088 L31.575,43.65 L32.903,43.65" id="Fill-21" fill="#4D4D4D" sketch:type="MSShapeGroup"></path>
            <path d="M42.294,55.072 L35.927,55.072 L35.927,43.65 L42.294,43.65 L42.294,44.83 L37.255,44.83 L37.255,48.51 L41.989,48.51 L41.989,49.682 L37.255,49.682 L37.255,53.885 L42.294,53.885 L42.294,55.072" id="Fill-22" fill="#4D4D4D" sketch:type="MSShapeGroup"></path>
            <path d="M51.27,52.033 C51.27,53.038 50.906,53.822 50.177,54.385 C49.447,54.947 48.458,55.228 47.208,55.228 C45.853,55.228 44.813,55.054 44.083,54.705 L44.083,53.424 C44.552,53.622 45.062,53.778 45.614,53.892 C46.166,54.007 46.713,54.065 47.255,54.065 C48.141,54.065 48.806,53.896 49.255,53.561 C49.703,53.225 49.927,52.757 49.927,52.158 C49.927,51.762 49.848,51.438 49.688,51.185 C49.529,50.932 49.264,50.7 48.892,50.486 C48.519,50.272 47.953,50.03 47.192,49.76 C46.13,49.38 45.371,48.928 44.915,48.408 C44.459,47.887 44.231,47.208 44.231,46.369 C44.231,45.489 44.562,44.788 45.224,44.268 C45.885,43.747 46.76,43.486 47.849,43.486 C48.984,43.486 50.028,43.694 50.981,44.111 L50.567,45.267 C49.625,44.872 48.708,44.674 47.817,44.674 C47.114,44.674 46.564,44.825 46.169,45.127 C45.773,45.429 45.575,45.848 45.575,46.385 C45.575,46.78 45.648,47.105 45.794,47.357 C45.939,47.61 46.185,47.842 46.532,48.053 C46.879,48.264 47.408,48.497 48.122,48.752 C49.32,49.179 50.145,49.638 50.595,50.127 C51.045,50.616 51.27,51.252 51.27,52.033" id="Fill-23" fill="#4D4D4D" sketch:type="MSShapeGroup"></path>
            <path d="M57.122,55.072 L55.794,55.072 L55.794,44.83 L52.177,44.83 L52.177,43.65 L60.739,43.65 L60.739,44.83 L57.122,44.83 L57.122,55.072" id="Fill-24" fill="#4D4D4D" sketch:type="MSShapeGroup"></path>
            <path d="M63.786,50.322 L63.786,55.072 L62.458,55.072 L62.458,43.65 L65.591,43.65 C66.992,43.65 68.027,43.919 68.696,44.455 C69.365,44.991 69.7,45.799 69.7,46.877 C69.7,48.387 68.934,49.408 67.403,49.94 L70.505,55.072 L68.934,55.072 L66.169,50.322 L63.786,50.322 L63.786,50.322 Z M63.786,49.182 L65.606,49.182 C66.544,49.182 67.231,48.995 67.669,48.623 C68.106,48.251 68.325,47.692 68.325,46.947 C68.325,46.192 68.102,45.647 67.657,45.314 C67.212,44.981 66.497,44.814 65.513,44.814 L63.786,44.814 L63.786,49.182 L63.786,49.182 Z" id="Fill-25" fill="#4D4D4D" sketch:type="MSShapeGroup"></path>
            <path d="M79.528,55.072 L78.106,51.44 L73.528,51.44 L72.122,55.072 L70.778,55.072 L75.294,43.603 L76.411,43.603 L80.903,55.072 L79.528,55.072 L79.528,55.072 Z M77.692,50.244 L76.364,46.705 C76.192,46.257 76.016,45.708 75.833,45.057 C75.719,45.557 75.555,46.106 75.341,46.705 L73.997,50.244 L77.692,50.244 L77.692,50.244 Z" id="Fill-26" fill="#4D4D4D" sketch:type="MSShapeGroup"></path>
            <path d="M86.63,55.072 L86.63,43.65 L87.958,43.65 L87.958,53.869 L92.997,53.869 L92.997,55.072 L86.63,55.072" id="Fill-27" fill="#4D4D4D" sketch:type="MSShapeGroup"></path>
            <path d="M94.935,43.65 L96.263,43.65 L96.263,55.072 L94.935,55.072 L94.935,43.65 Z" id="Fill-28" fill="#4D4D4D" sketch:type="MSShapeGroup"></path>
            <path d="M105.841,52.033 C105.841,53.038 105.476,53.822 104.747,54.385 C104.018,54.947 103.028,55.228 101.778,55.228 C100.424,55.228 99.383,55.054 98.653,54.705 L98.653,53.424 C99.122,53.622 99.633,53.778 100.185,53.892 C100.736,54.007 101.283,54.065 101.825,54.065 C102.711,54.065 103.377,53.896 103.825,53.561 C104.273,53.225 104.497,52.757 104.497,52.158 C104.497,51.762 104.418,51.438 104.259,51.185 C104.1,50.932 103.834,50.7 103.462,50.486 C103.09,50.272 102.523,50.03 101.763,49.76 C100.7,49.38 99.941,48.928 99.485,48.408 C99.029,47.887 98.802,47.208 98.802,46.369 C98.802,45.489 99.133,44.788 99.794,44.268 C100.455,43.747 101.33,43.486 102.419,43.486 C103.555,43.486 104.599,43.694 105.552,44.111 L105.138,45.267 C104.195,44.872 103.278,44.674 102.388,44.674 C101.685,44.674 101.135,44.825 100.739,45.127 C100.344,45.429 100.145,45.848 100.145,46.385 C100.145,46.78 100.219,47.105 100.364,47.357 C100.51,47.61 100.756,47.842 101.102,48.053 C101.449,48.264 101.978,48.497 102.692,48.752 C103.89,49.179 104.715,49.638 105.165,50.127 C105.615,50.616 105.841,51.252 105.841,52.033" id="Fill-29" fill="#4D4D4D" sketch:type="MSShapeGroup"></path>
            <path d="M111.692,55.072 L110.364,55.072 L110.364,44.83 L106.747,44.83 L106.747,43.65 L115.309,43.65 L115.309,44.83 L111.692,44.83 L111.692,55.072" id="Fill-30" fill="#4D4D4D" sketch:type="MSShapeGroup"></path>
            <path d="M124.208,55.072 L122.786,51.44 L118.208,51.44 L116.802,55.072 L115.458,55.072 L119.974,43.603 L121.091,43.603 L125.583,55.072 L124.208,55.072 L124.208,55.072 Z M122.372,50.244 L121.044,46.705 C120.872,46.257 120.695,45.708 120.513,45.057 C120.398,45.557 120.234,46.106 120.02,46.705 L118.677,50.244 L122.372,50.244 L122.372,50.244 Z" id="Fill-31" fill="#4D4D4D" sketch:type="MSShapeGroup"></path>
            <path d="M34.594,68.252 C34.594,70.137 34.082,71.579 33.059,72.576 C32.035,73.573 30.563,74.072 28.641,74.072 L25.477,74.072 L25.477,62.65 L28.976,62.65 C30.753,62.65 32.133,63.142 33.117,64.127 C34.102,65.111 34.594,66.486 34.594,68.252 L34.594,68.252 Z M33.188,68.299 C33.188,66.809 32.813,65.686 32.066,64.932 C31.319,64.176 30.208,63.799 28.734,63.799 L26.805,63.799 L26.805,72.924 L28.422,72.924 C30.005,72.924 31.195,72.534 31.992,71.756 C32.789,70.977 33.188,69.825 33.188,68.299 L33.188,68.299 Z" id="Fill-32" fill="#4D4D4D" sketch:type="MSShapeGroup"></path>
            <path d="M43.508,74.072 L37.14,74.072 L37.14,62.65 L43.508,62.65 L43.508,63.83 L38.469,63.83 L38.469,67.51 L43.203,67.51 L43.203,68.682 L38.469,68.682 L38.469,72.885 L43.508,72.885 L43.508,74.072" id="Fill-33" fill="#4D4D4D" sketch:type="MSShapeGroup"></path>
            <path d="M55.086,63.674 C53.831,63.674 52.84,64.092 52.113,64.928 C51.387,65.764 51.023,66.908 51.023,68.361 C51.023,69.856 51.374,71.011 52.074,71.826 C52.774,72.642 53.773,73.049 55.07,73.049 C55.867,73.049 56.776,72.905 57.797,72.619 L57.797,73.783 C57.005,74.08 56.028,74.228 54.867,74.228 C53.184,74.228 51.887,73.718 50.973,72.697 C50.059,71.676 49.601,70.226 49.601,68.345 C49.601,67.169 49.821,66.138 50.262,65.252 C50.702,64.366 51.337,63.684 52.168,63.205 C52.999,62.726 53.977,62.486 55.102,62.486 C56.3,62.486 57.347,62.705 58.242,63.142 L57.68,64.283 C56.815,63.877 55.95,63.674 55.086,63.674" id="Fill-34" fill="#4D4D4D" sketch:type="MSShapeGroup"></path>
            <path d="M70.203,68.345 C70.203,70.174 69.741,71.611 68.816,72.658 C67.891,73.705 66.606,74.228 64.961,74.228 C63.278,74.228 61.98,73.714 61.066,72.686 C60.152,71.657 59.695,70.205 59.695,68.33 C59.695,66.47 60.153,65.029 61.07,64.006 C61.987,62.982 63.289,62.471 64.976,62.471 C66.617,62.471 67.898,62.991 68.82,64.033 C69.742,65.075 70.203,66.513 70.203,68.345 L70.203,68.345 Z M61.102,68.345 C61.102,69.892 61.431,71.065 62.09,71.865 C62.749,72.665 63.706,73.064 64.961,73.064 C66.226,73.064 67.182,72.666 67.828,71.869 C68.474,71.072 68.797,69.897 68.797,68.345 C68.797,66.809 68.475,65.644 67.832,64.85 C67.188,64.055 66.237,63.658 64.976,63.658 C63.711,63.658 62.749,64.057 62.09,64.857 C61.431,65.657 61.102,66.819 61.102,68.345 L61.102,68.345 Z" id="Fill-35" fill="#4D4D4D" sketch:type="MSShapeGroup"></path>
            <path d="M74.078,69.322 L74.078,74.072 L72.75,74.072 L72.75,62.65 L75.883,62.65 C77.284,62.65 78.319,62.919 78.988,63.455 C79.657,63.991 79.992,64.799 79.992,65.877 C79.992,67.387 79.226,68.408 77.695,68.939 L80.797,74.072 L79.226,74.072 L76.461,69.322 L74.078,69.322 L74.078,69.322 Z M74.078,68.181 L75.898,68.181 C76.836,68.181 77.523,67.995 77.961,67.623 C78.398,67.251 78.617,66.692 78.617,65.947 C78.617,65.192 78.394,64.647 77.949,64.314 C77.504,63.981 76.789,63.815 75.805,63.815 L74.078,63.815 L74.078,68.181 L74.078,68.181 Z" id="Fill-36" fill="#4D4D4D" sketch:type="MSShapeGroup"></path>
            <path d="M83.969,69.322 L83.969,74.072 L82.641,74.072 L82.641,62.65 L85.773,62.65 C87.175,62.65 88.21,62.919 88.879,63.455 C89.548,63.991 89.883,64.799 89.883,65.877 C89.883,67.387 89.117,68.408 87.586,68.939 L90.687,74.072 L89.117,74.072 L86.351,69.322 L83.969,69.322 L83.969,69.322 Z M83.969,68.181 L85.789,68.181 C86.726,68.181 87.414,67.995 87.851,67.623 C88.289,67.251 88.508,66.692 88.508,65.947 C88.508,65.192 88.285,64.647 87.84,64.314 C87.394,63.981 86.68,63.815 85.695,63.815 L83.969,63.815 L83.969,68.181 L83.969,68.181 Z" id="Fill-37" fill="#4D4D4D" sketch:type="MSShapeGroup"></path>
            <path d="M98.898,74.072 L92.531,74.072 L92.531,62.65 L98.898,62.65 L98.898,63.83 L93.859,63.83 L93.859,67.51 L98.594,67.51 L98.594,68.682 L93.859,68.682 L93.859,72.885 L98.898,72.885 L98.898,74.072" id="Fill-38" fill="#4D4D4D" sketch:type="MSShapeGroup"></path>
            <path d="M111.344,68.345 C111.344,70.174 110.882,71.611 109.957,72.658 C109.032,73.705 107.747,74.228 106.102,74.228 C104.419,74.228 103.121,73.714 102.207,72.686 C101.293,71.657 100.836,70.205 100.836,68.33 C100.836,66.47 101.294,65.029 102.211,64.006 C103.128,62.982 104.43,62.471 106.117,62.471 C107.758,62.471 109.039,62.991 109.961,64.033 C110.883,65.075 111.344,66.513 111.344,68.345 L111.344,68.345 Z M102.242,68.345 C102.242,69.892 102.571,71.065 103.23,71.865 C103.89,72.665 104.846,73.064 106.102,73.064 C107.367,73.064 108.323,72.666 108.969,71.869 C109.614,71.072 109.937,69.897 109.937,68.345 C109.937,66.809 109.616,65.644 108.973,64.85 C108.329,64.055 107.378,63.658 106.117,63.658 C104.851,63.658 103.89,64.057 103.23,64.857 C102.571,65.657 102.242,66.819 102.242,68.345 L102.242,68.345 Z" id="Fill-39" fill="#4D4D4D" sketch:type="MSShapeGroup"></path>
        </g>
    </g>
</svg>