<?xml version="1.0" encoding="UTF-8" standalone="no"?>
<svg width="95px" height="96px" viewBox="0 0 95 96" version="1.1" xmlns="http://www.w3.org/2000/svg" xmlns:xlink="http://www.w3.org/1999/xlink" xmlns:sketch="http://www.bohemiancoding.com/sketch/ns">
    <!-- Generator: Sketch 3.3.2 (12043) - http://www.bohemiancoding.com/sketch -->
    <title>Imported Layers</title>
    <desc>Created with Sketch.</desc>
    <defs></defs>
    <g id="Page-1" stroke="none" stroke-width="1" fill="none" fill-rule="evenodd" sketch:type="MSPage">
        <g id="Imported-Layers" sketch:type="MSLayerGroup">
            <path d="M94.668,48.069 C94.668,22.01 73.542,0.884 47.482,0.884 C21.423,0.884 0.299,22.01 0.299,48.069 C0.299,74.13 21.423,95.254 47.482,95.254 C73.542,95.254 94.668,74.13 94.668,48.069" id="Fill-1" fill="#3DC0F0" sketch:type="MSShapeGroup"></path>
            <path d="M23.696,63.424 C29.085,63.732 33.67,62.502 38.015,59.148 C33.555,58.645 30.559,56.64 28.856,52.593 C30.22,52.487 31.433,52.387 32.651,52.291 C28.293,50.408 25.597,47.498 25.286,42.555 C26.684,42.91 27.92,43.231 29.163,43.549 C29.227,43.447 29.296,43.344 29.363,43.245 C27.599,41.574 26.074,39.776 25.594,37.316 C25.12,34.915 25.334,32.634 26.585,30.307 C32.029,36.504 38.704,40.04 46.892,40.588 C47.006,39.001 46.929,37.483 47.252,36.054 C48.85,28.965 57.135,25.972 62.818,30.469 C63.976,31.383 64.926,31.488 66.15,30.995 C67.408,30.487 68.675,29.998 70.075,29.448 C69.472,31.544 68.033,32.917 66.493,34.226 C66.541,34.338 66.59,34.446 66.636,34.558 C68.119,34.194 69.606,33.827 71.089,33.465 C71.153,33.532 71.212,33.602 71.272,33.675 C70.211,34.775 69.248,35.997 68.059,36.941 C67.027,37.766 66.698,38.634 66.636,39.932 C66.144,50.702 61.499,59.188 51.938,64.335 C42.983,69.157 33.766,68.816 24.743,64.097 C24.477,63.956 24.237,63.777 23.696,63.424" id="Fill-2" fill="#FFFFFF" sketch:type="MSShapeGroup"></path>
        </g>
    </g>
</svg>