<?xml version="1.0" encoding="UTF-8" standalone="no"?>
<svg width="95px" height="96px" viewBox="0 0 95 96" version="1.1" xmlns="http://www.w3.org/2000/svg" xmlns:xlink="http://www.w3.org/1999/xlink" xmlns:sketch="http://www.bohemiancoding.com/sketch/ns">
    <!-- Generator: Sketch 3.3.2 (12043) - http://www.bohemiancoding.com/sketch -->
    <title>Imported Layers</title>
    <desc>Created with Sketch.</desc>
    <defs></defs>
    <g id="Page-1" stroke="none" stroke-width="1" fill="none" fill-rule="evenodd" sketch:type="MSPage">
        <g id="Imported-Layers" sketch:type="MSLayerGroup">
            <path d="M94.701,47.884 C94.701,21.825 73.574,0.699 47.515,0.699 C21.456,0.699 0.332,21.825 0.332,47.884 C0.332,73.944 21.456,95.07 47.515,95.07 C73.574,95.07 94.701,73.944 94.701,47.884" id="Fill-1" fill="#CE2C27" sketch:type="MSShapeGroup"></path>
            <path d="M62.663,32.882 C67.646,33.083 72.333,33.246 77.02,33.472 C79.559,33.596 81.28,34.944 82.06,37.356 C82.772,39.556 82.895,41.86 82.912,44.14 C82.936,47.632 82.813,51.128 82.682,54.618 C82.643,55.663 82.447,56.722 82.18,57.737 C81.468,60.447 79.703,61.855 76.794,62.045 C70.001,62.489 63.199,62.583 56.396,62.419 C53.534,62.349 50.678,62.215 47.82,62.07 C47.053,62.032 46.278,61.906 45.528,61.729 C43.229,61.186 41.932,59.576 41.574,57.378 C41.174,54.895 40.917,52.366 40.894,49.853 C40.863,46.505 41.079,43.152 41.27,39.805 C41.324,38.886 41.591,37.956 41.891,37.077 C42.681,34.772 44.417,33.597 46.777,33.484 C52.164,33.227 57.557,33.069 62.663,32.882 L62.663,32.882 Z M64.941,55.63 C65.448,56.025 65.825,56.386 66.262,56.647 C67.853,57.602 69.497,56.863 69.829,55.05 C69.928,54.499 69.985,53.932 69.986,53.373 C70.006,51.051 70.016,48.729 69.981,46.406 C69.973,45.712 69.872,45.002 69.702,44.327 C69.279,42.635 67.88,42.035 66.344,42.882 C65.849,43.155 65.427,43.561 64.91,43.951 L64.91,38.01 L62.422,38.01 L62.422,56.821 L64.941,56.821 L64.941,55.63 L64.941,55.63 Z M52.808,42.787 L52.808,43.194 C52.808,46.927 52.806,50.66 52.811,54.392 C52.811,54.649 52.832,54.91 52.877,55.163 C53.209,57.036 54.655,57.649 56.249,56.57 C56.704,56.263 57.099,55.869 57.598,55.449 L57.598,56.812 L60.229,56.812 L60.229,42.813 L57.598,42.813 C57.598,46.126 57.574,49.388 57.617,52.651 C57.626,53.366 57.391,53.89 56.863,54.28 C56.588,54.484 56.149,54.709 55.89,54.62 C55.675,54.546 55.502,54.025 55.5,53.702 C55.474,50.322 55.484,46.939 55.484,43.558 L55.484,42.787 L52.808,42.787 L52.808,42.787 Z M79.428,50.211 C79.428,48.906 79.484,47.683 79.415,46.466 C79.247,43.508 76.85,41.829 74.205,42.765 C72.665,43.311 71.72,44.784 71.693,46.791 C71.664,48.834 71.655,50.877 71.698,52.919 C71.726,54.199 72.109,55.374 73.152,56.226 C74.38,57.225 76.462,57.335 77.78,56.485 C79.145,55.602 79.796,53.689 79.331,51.956 L76.733,51.956 C76.733,52.523 76.772,53.062 76.723,53.592 C76.665,54.215 76.32,54.67 75.659,54.702 C75.049,54.733 74.573,54.407 74.515,53.787 C74.399,52.613 74.375,51.43 74.31,50.211 L79.428,50.211 L79.428,50.211 Z M53.206,38.017 L44.401,38.017 L44.401,40.69 L47.356,40.69 L47.356,56.817 L50.137,56.817 L50.137,40.639 L53.206,40.639 L53.206,38.017 L53.206,38.017 Z" id="Fill-2" fill="#FFFFFF" sketch:type="MSShapeGroup"></path>
            <path d="M15.351,37.848 L12.37,37.848 C13.113,40.223 13.742,42.552 14.565,44.812 C15.62,47.716 16.132,50.666 15.902,53.753 C15.83,54.77 15.891,55.798 15.891,56.814 L18.712,56.814 C18.712,55.065 18.764,53.355 18.695,51.647 C18.631,49.985 18.826,48.386 19.428,46.834 C19.624,46.333 19.766,45.814 19.927,45.3 C20.696,42.828 21.467,40.355 22.24,37.869 L19.244,37.869 C18.62,40.211 18.004,42.523 17.39,44.836 L17.227,44.839 C16.602,42.51 15.975,40.18 15.351,37.848" id="Fill-3" fill="#ECABA9" sketch:type="MSShapeGroup"></path>
            <path d="M38.676,42.639 L36.039,42.639 C36.039,46.034 36.018,49.363 36.059,52.695 C36.068,53.389 35.824,53.889 35.326,54.261 C35.08,54.446 34.719,54.61 34.421,54.61 C34.376,54.61 34.332,54.606 34.29,54.598 C34.115,54.563 33.946,53.992 33.944,53.662 C33.918,50.234 33.926,46.808 33.926,43.38 L33.926,42.669 L31.252,42.669 C31.252,46.679 31.247,50.647 31.255,54.612 C31.255,54.912 31.322,55.219 31.39,55.514 C31.621,56.512 32.3,57.093 33.163,57.093 C33.448,57.093 33.753,57.03 34.069,56.896 C34.512,56.711 34.902,56.387 35.293,56.097 C35.541,55.915 35.75,55.683 36.073,55.386 L36.073,56.812 L38.676,56.812 L38.676,42.639" id="Fill-4" fill="#ECABA9" sketch:type="MSShapeGroup"></path>
            <path d="M25.423,54.667 C25.121,54.667 24.757,54.329 24.527,54.057 C24.37,53.869 24.356,53.524 24.354,53.25 C24.341,50.955 24.341,48.657 24.356,46.359 C24.356,46.084 24.372,45.734 24.534,45.557 C24.777,45.292 25.154,44.994 25.475,44.994 C25.794,44.995 26.193,45.283 26.41,45.56 C26.586,45.785 26.586,46.18 26.591,46.5 C26.612,47.601 26.6,48.704 26.6,49.806 C26.6,50.932 26.61,52.057 26.591,53.182 C26.587,53.48 26.586,53.857 26.419,54.055 C26.169,54.342 25.774,54.657 25.435,54.667 L25.423,54.667 M25.427,42.503 L25.415,42.503 C23.442,42.509 22.035,43.612 21.828,45.63 C21.633,47.559 21.693,49.516 21.678,51.458 C21.669,52.301 21.678,53.154 21.805,53.982 C22.093,55.873 23.578,57.109 25.459,57.112 L25.466,57.112 C27.361,57.112 28.883,55.905 29.13,54.019 C29.309,52.653 29.275,51.262 29.338,49.854 C29.275,48.45 29.311,47.01 29.123,45.598 C28.857,43.595 27.463,42.503 25.427,42.503" id="Fill-5" fill="#ECABA9" sketch:type="MSShapeGroup"></path>
            <path d="M64.941,55.63 L64.941,56.821 L62.422,56.821 L62.422,38.01 L64.91,38.01 L64.91,43.951 C65.427,43.561 65.849,43.155 66.344,42.882 C67.88,42.035 69.279,42.635 69.702,44.327 C69.872,45.002 69.973,45.712 69.981,46.406 C70.016,48.729 70.006,51.051 69.986,53.373 C69.985,53.932 69.928,54.499 69.829,55.05 C69.497,56.863 67.853,57.602 66.262,56.647 C65.825,56.386 65.448,56.025 64.941,55.63 L64.941,55.63 Z M64.923,49.815 C64.923,51.033 64.921,52.252 64.923,53.467 C64.923,54.145 65.403,54.656 66.137,54.7 C66.794,54.74 67.112,54.344 67.21,53.734 C67.246,53.505 67.292,53.272 67.294,53.041 C67.3,50.84 67.298,48.639 67.292,46.437 C67.292,46.207 67.246,45.975 67.206,45.745 C67.1,45.135 66.726,44.85 66.115,44.911 C65.422,44.979 64.927,45.448 64.923,46.021 C64.92,47.287 64.923,48.552 64.923,49.815 L64.923,49.815 Z" id="Fill-6" fill="#CE2C27" sketch:type="MSShapeGroup"></path>
            <path d="M52.808,42.787 L55.484,42.787 L55.484,43.558 C55.484,46.939 55.474,50.322 55.5,53.702 C55.502,54.025 55.675,54.546 55.89,54.62 C56.149,54.709 56.588,54.484 56.863,54.28 C57.391,53.89 57.626,53.366 57.617,52.651 C57.574,49.388 57.598,46.126 57.598,42.813 L60.229,42.813 L60.229,56.812 L57.598,56.812 L57.598,55.449 C57.099,55.869 56.704,56.263 56.249,56.57 C54.655,57.649 53.209,57.036 52.877,55.163 C52.832,54.91 52.811,54.649 52.811,54.392 C52.806,50.66 52.808,46.927 52.808,43.194 L52.808,42.787" id="Fill-7" fill="#CE2C27" sketch:type="MSShapeGroup"></path>
            <path d="M79.428,50.211 L74.31,50.211 C74.375,51.43 74.399,52.613 74.515,53.787 C74.573,54.407 75.049,54.733 75.659,54.702 C76.32,54.67 76.665,54.215 76.723,53.592 C76.772,53.062 76.733,52.523 76.733,51.956 L79.331,51.956 C79.796,53.689 79.145,55.602 77.78,56.485 C76.462,57.335 74.38,57.225 73.152,56.226 C72.109,55.374 71.726,54.199 71.698,52.919 C71.655,50.877 71.664,48.834 71.693,46.791 C71.72,44.784 72.665,43.311 74.205,42.765 C76.85,41.829 79.247,43.508 79.415,46.466 C79.484,47.683 79.428,48.906 79.428,50.211 L79.428,50.211 Z M76.796,48.087 C76.749,47.276 76.737,46.51 76.649,45.751 C76.581,45.135 76.142,44.895 75.553,44.9 C74.965,44.905 74.53,45.149 74.466,45.766 C74.386,46.524 74.373,47.291 74.33,48.087 L76.796,48.087 L76.796,48.087 Z" id="Fill-8" fill="#CE2C27" sketch:type="MSShapeGroup"></path>
            <path d="M53.206,38.017 L53.206,40.639 L50.137,40.639 L50.137,56.817 L47.356,56.817 L47.356,40.69 L44.401,40.69 L44.401,38.017 L53.206,38.017" id="Fill-9" fill="#CE2C27" sketch:type="MSShapeGroup"></path>
            <path d="M64.923,49.815 C64.923,48.552 64.92,47.287 64.923,46.021 C64.927,45.448 65.422,44.979 66.115,44.911 C66.726,44.85 67.1,45.135 67.206,45.745 C67.246,45.975 67.292,46.207 67.292,46.437 C67.298,48.639 67.3,50.84 67.294,53.041 C67.292,53.272 67.246,53.505 67.21,53.734 C67.112,54.344 66.794,54.74 66.137,54.7 C65.403,54.656 64.923,54.145 64.923,53.467 C64.921,52.252 64.923,51.033 64.923,49.815" id="Fill-10" fill="#FFFFFF" sketch:type="MSShapeGroup"></path>
            <path d="M76.796,48.087 L74.33,48.087 C74.373,47.291 74.386,46.524 74.466,45.766 C74.53,45.149 74.965,44.905 75.553,44.9 C76.142,44.895 76.581,45.135 76.649,45.751 C76.737,46.51 76.749,47.276 76.796,48.087" id="Fill-11" fill="#FFFFFF" sketch:type="MSShapeGroup"></path>
        </g>
    </g>
</svg>