<?xml version="1.0" encoding="UTF-8" standalone="no"?>
<svg width="26px" height="24px" viewBox="0 0 26 24" version="1.1" xmlns="http://www.w3.org/2000/svg" xmlns:xlink="http://www.w3.org/1999/xlink" xmlns:sketch="http://www.bohemiancoding.com/sketch/ns">
    <!-- Generator: Sketch 3.3.2 (12043) - http://www.bohemiancoding.com/sketch -->
    <title>Imported Layers</title>
    <desc>Created with Sketch.</desc>
    <defs></defs>
    <g id="Page-1" stroke="none" stroke-width="1" fill="none" fill-rule="evenodd" sketch:type="MSPage">
        <g id="Imported-Layers" sketch:type="MSLayerGroup">
            <path d="M15,2.58 C10.87,0.244 8.504,1.754 6.705,2.537 C5.938,2.87 3.177,6.064 3.177,6.064 L3.723,6.627 L2.623,7.737 L1.234,7.805 L0.332,8.709 L4.801,13.01 L5.622,12.191 L5.396,10.514 L6.503,9.406 L6.993,9.883 L10.81,6.064 C10.81,6.064 10.875,5.775 10.131,5.387 C10.51,4.236 13.758,2.117 15,2.58" id="Fill-1" fill="#1986C8" sketch:type="MSShapeGroup"></path>
            <path d="M8.428,9.51 L20.41,22.744 L24.217,18.938 L10.746,7.027 L8.428,9.51" id="Fill-2" fill="#1986C8" sketch:type="MSShapeGroup"></path>
            <path d="M6.8,17.609 C6.531,17.869 5.839,18.198 5.839,18.198 C5.839,18.198 4.779,18.254 4.38,18.463 C3.814,18.757 2.755,20.537 2.56,20.795 C2.334,21.1 2.311,21.345 2.619,21.631 C3.223,22.193 3.772,22.815 4.388,23.359 C4.548,23.499 4.947,23.549 5.128,23.447 C5.866,23.031 6.574,22.56 7.264,22.062 C7.449,21.93 7.648,21.631 7.633,21.423 C7.549,20.232 8.076,19.375 8.974,18.674 C9.168,18.523 10.92,16.688 11.098,16.513 C11.675,15.93 12.746,14.858 13.345,14.262 C12.807,13.74 12.242,13.246 11.756,12.674 C10.764,13.668 7.779,16.659 6.8,17.609" id="Fill-3" fill="#1986C8" sketch:type="MSShapeGroup"></path>
            <path d="M10.361,10.645 C10.96,11.242 14.902,15.092 15.455,15.645 C15.858,15.242 16.205,14.894 16.578,14.522 C16.388,14.228 16.178,13.974 16.049,13.684 C15.976,13.516 15.951,13.213 16.049,13.104 C16.596,12.498 17.19,11.936 17.783,11.342 C18.08,11.588 18.305,11.772 18.518,11.947 L18.681,11.893 C20.896,9.691 23.115,7.494 25.305,5.267 C25.454,5.116 25.469,4.711 25.39,4.478 C24.738,2.606 23.362,1.45 21.593,0.679 C21.168,0.494 20.887,0.547 20.552,0.889 C18.537,2.936 16.496,4.959 14.468,6.992 C14.316,7.143 14.185,7.314 14.048,7.473 C14.266,7.736 14.438,7.944 14.687,8.241 C14.159,8.769 13.666,9.228 13.215,9.724 C12.853,10.123 12.522,10.242 12.096,9.822 C11.688,9.418 11.322,9.506 10.99,9.949 C10.818,10.18 10.606,10.377 10.361,10.645 M23.16,3.957 C23.895,4.759 23.895,4.759 23.21,5.445 C21.836,6.819 20.46,8.193 19.086,9.568 C18.894,9.757 18.706,9.947 18.471,10.182 C18.172,9.883 17.961,9.674 17.702,9.414 C19.532,7.586 21.345,5.772 23.16,3.957 M17.242,6.393 C18.388,5.249 19.532,4.103 20.68,2.961 C21.367,2.277 21.369,2.28 22.213,2.98 C20.409,4.785 18.606,6.586 16.764,8.429 C16.531,8.193 16.295,7.959 15.987,7.65 C16.406,7.229 16.823,6.812 17.242,6.393" id="Fill-4" fill="#1986C8" sketch:type="MSShapeGroup"></path>
            <path d="M23.16,3.957 C21.345,5.772 19.532,7.586 17.702,9.414 C17.961,9.674 18.172,9.883 18.471,10.182 C18.706,9.947 18.894,9.757 19.086,9.568 C20.46,8.193 21.836,6.819 23.21,5.445 C23.547,5.108 23.718,4.936 23.717,4.753 C23.717,4.565 23.533,4.365 23.16,3.957" id="Fill-5" fill="#8CC2E3" sketch:type="MSShapeGroup"></path>
            <path d="M21.383,2.451 C21.193,2.452 21.021,2.622 20.68,2.961 C19.532,4.103 18.388,5.249 17.242,6.393 C16.823,6.812 16.406,7.229 15.987,7.65 C16.295,7.959 16.531,8.193 16.764,8.429 C18.606,6.586 20.409,4.785 22.213,2.98 C21.788,2.627 21.576,2.451 21.383,2.451" id="Fill-6" fill="#8CC2E3" sketch:type="MSShapeGroup"></path>
        </g>
    </g>
</svg>