<?xml version="1.0" encoding="UTF-8" standalone="no"?>
<svg width="23px" height="23px" viewBox="0 0 23 23" version="1.1" xmlns="http://www.w3.org/2000/svg" xmlns:xlink="http://www.w3.org/1999/xlink" xmlns:sketch="http://www.bohemiancoding.com/sketch/ns">
    <!-- Generator: Sketch 3.3.2 (12043) - http://www.bohemiancoding.com/sketch -->
    <title>Imported Layers</title>
    <desc>Created with Sketch.</desc>
    <defs></defs>
    <g id="Page-1" stroke="none" stroke-width="1" fill="none" fill-rule="evenodd" sketch:type="MSPage">
        <g id="Imported-Layers" sketch:type="MSLayerGroup" fill="#B1B2B2">
            <path d="M0,0 L6,0 L6,6 L0,6 L0,0 Z" id="Fill-1" sketch:type="MSShapeGroup"></path>
            <path d="M8,0 L15,0 L15,6 L8,6 L8,0 Z" id="Fill-2" sketch:type="MSShapeGroup"></path>
            <path d="M17,0 L23,0 L23,6 L17,6 L17,0 Z" id="Fill-3" sketch:type="MSShapeGroup"></path>
            <path d="M0,8 L6,8 L6,15 L0,15 L0,8 Z" id="Fill-4" sketch:type="MSShapeGroup"></path>
            <path d="M8,8 L15,8 L15,15 L8,15 L8,8 Z" id="Fill-5" sketch:type="MSShapeGroup"></path>
            <path d="M17,8 L23,8 L23,15 L17,15 L17,8 Z" id="Fill-6" sketch:type="MSShapeGroup"></path>
            <path d="M0,17 L6,17 L6,22.94 L0,22.94 L0,17 Z" id="Fill-7" sketch:type="MSShapeGroup"></path>
            <path d="M8,17 L15,17 L15,22.94 L8,22.94 L8,17 Z" id="Fill-8" sketch:type="MSShapeGroup"></path>
            <path d="M17,17 L23,17 L23,22.94 L17,22.94 L17,17 Z" id="Fill-9" sketch:type="MSShapeGroup"></path>
        </g>
    </g>
</svg>